<svg xmlns="http://www.w3.org/2000/svg" xml:space="preserve" id="Layer_1" x="0" y="0" style="enable-background:new 0 0 40 40" version="1.1" viewBox="0 0 40 40"><style>.st0{fill:#6e4bfc}</style><path d="M33.1 6.7c.1 0 .3.1.3.3v26c0 .1-.1.3-.3.3H6.9c-.1 0-.3-.1-.3-.3V7c0-.1.1-.3.3-.3h26.2m0-.7H6.9c-.6 0-1 .5-1 1v26c0 .6.5 1 1 1h26.3c.6 0 1-.5 1-1V7c-.1-.6-.5-1-1.1-1z"/><path d="M29.8 9.2c.1 0 .2 0 .3.1l1.4 1.5c.1.1.1.4 0 .5-.1.1-.4.1-.5 0L29.9 10l-1.1 1.3c-.1.1-.3.2-.5 0-.1-.1-.2-.3 0-.5l1.4-1.5c-.1 0 0-.1.1-.1zM8.5 9.8h17.3v.9H8.5z" class="st0"/><path d="M31.5 15.3h-23v.9h23v-.9zM31.5 18.7h-23v1h23v-1zM31.5 25.6h-23v1h23v-1zM31.5 29.1h-23v.9h23v-.9zM31.5 22.2h-23v.9h23v-.9z"/></svg>