<svg xmlns="http://www.w3.org/2000/svg" xml:space="preserve" id="Layer_1" x="0" y="0" style="enable-background:new 0 0 40 40" version="1.1" viewBox="0 0 40 40"><style>.st0{fill:#6e4bfc}</style><path d="M33.1 16.4c.2 0 .4.2.4.4v6.6c0 .2-.2.4-.4.4H6.9c-.2 0-.4-.2-.4-.4v-6.6c0-.2.2-.4.4-.4h26.2m0-.7H6.9c-.6 0-1.1.5-1.1 1.1v6.6c0 .6.5 1.1 1.1 1.1h26.2c.6 0 1.1-.5 1.1-1.1v-6.6c-.1-.6-.5-1.1-1.1-1.1z"/><path d="M30 21.2c-.1 0-.2 0-.3-.1l-1.4-1.5c-.1-.1-.1-.4 0-.5.1-.1.4-.1.5 0l1.1 1.3 1.1-1.3c.1-.1.3-.2.5 0 .1.1.2.3 0 .5l-1.4 1.5c.1.1 0 .1-.1.1zM8.6 19.6h17.3v.9H8.6z" class="st0"/><path d="M33.1 6.7c.2 0 .4.2.4.4v6.6c0 .2-.2.4-.4.4H6.9c-.2 0-.4-.2-.4-.4V7c0-.2.2-.4.4-.4h26.2m0-.6H6.9c-.6 0-1 .5-1 1v6.6c0 .6.5 1.1 1.1 1.1h26.2c.6 0 1.1-.5 1.1-1.1V7c-.2-.5-.6-1-1.2-1z"/><path d="M30 11.5c-.1 0-.2 0-.3-.1l-1.4-1.5c-.1-.1-.1-.4 0-.5.1-.1.4-.1.5 0l1.1 1.3L31 9.4c.1-.1.3-.2.5 0 .1.1.2.3 0 .5l-1.4 1.5c.1 0 0 .1-.1.1zM8.6 9.8h17.3v.9H8.6z" class="st0"/><path d="M33.1 26c.2 0 .4.2.4.4V33c0 .2-.2.4-.4.4H6.9c-.2 0-.4-.2-.4-.4v-6.6c0-.2.2-.4.4-.4h26.2m0-.7H6.9c-.6 0-1.1.5-1.1 1.1V33c0 .6.5 1.1 1.1 1.1h26.2c.6 0 1.1-.5 1.1-1.1v-6.6c-.1-.7-.5-1.1-1.1-1.1z"/><path d="M30 30.8c-.1 0-.2 0-.3-.1l-1.4-1.5c-.1-.1-.1-.4 0-.5.1-.1.4-.1.5 0l1.1 1.3 1.1-1.3c.1-.1.3-.2.5 0 .1.1.2.3 0 .5l-1.4 1.5c.1 0 0 .1-.1.1zM8.6 29.1h17.3v.9H8.6z" class="st0"/></svg>