<svg xmlns="http://www.w3.org/2000/svg" xml:space="preserve" id="Layer_1" x="0" y="0" style="enable-background:new 0 0 25 24" version="1.1" viewBox="0 0 25 24"><style>.st0{fill:currentColor}</style><path d="M20.9 17.1v3.1H4.1v-3.1h16.8m1.2-1.2H2.9v5.5h19.3v-5.5h-.1zM20.9 10.5v3.1H4.1v-3.1h16.8m1.2-1.2H2.9v5.5h19.3V9.3h-.1zM20.9 3.8v3.1H4.1V3.8h16.8m1.2-1.2H2.9v5.5h19.3V2.6h-.1z" class="st0"/><path d="M19.1 4.3h.5v2h-.5z" class="st0"/><path d="M20.414 5.1v.5h-2v-.5zM19.1 11h.5v2h-.5z" class="st0"/><path d="M20.415 11.8v.5h-2v-.5zM19.1 17.6h.5v2h-.5z" class="st0"/><path d="M20.4 18.386v.5h-2v-.5z" class="st0"/></svg>
