<svg xmlns="http://www.w3.org/2000/svg" xml:space="preserve" id="Layer_1" x="0" y="0" style="enable-background:new 0 0 25 24" version="1.1" viewBox="0 0 25 24"><style>.st0{fill:currentColor}.st2{fill:none;stroke:currentColor;stroke-miterlimit:10}</style><path d="M22.7 17.6H2.3v1h20.5v-1h-.1zM22.7 19.7H2.3v1h20.5v-1h-.1zM22.7 3.3H2.3v1h20.5v-1h-.1zM22.7 5.4H2.3v1h20.5v-1h-.1zM21.7 8.6v6.9H3.3V8.6h18.4m1-1H2.3v8.9h20.5V7.6h-.1z" class="st0"/><path d="m18.4 15.9 3.7-3.7M2.7 11.7 6.4 8M3.5 15.9l8-7.9M8.5 15.9l8-7.9M13.8 15.9 21.7 8" class="st2"/></svg>
