<svg xmlns="http://www.w3.org/2000/svg" xml:space="preserve" fill="currentcolor" viewBox="0 0 25 24"><path d="M18.1 22.4h-.5v-1h1v.5c0 .3-.2.5-.5.5zm-1.5 0h-1v-1h1v1zm-1.9 0h-1v-1h1v1zm-2 0h-1v-1h1v1zm-2 0h-1v-1h1v1zm-2 0h-1v-1h1v1zm-2 0h-1v-1h1v1zm-1.9 0h-1v-1h1v1zm-2 0h-.5c-.3 0-.5-.2-.5-.5v-.5h1v1zm0-2h-1v-1h1v1zm0-2h-1v-1h1v1zm0-1.9h-1v-1h1v1zm0-2h-1v-1h1v1zm0-2h-1v-1h1v1zm0-2h-1v-1h1v1zm0-2h-1v-1h1v1zm0-1.9h-1v-1h1v1zm0-2h-1v-1h1v1zm0-2h-1v-.5c0-.3.2-.5.5-.5h.5v1zm13.8 0h-1v-1h1v1zm-1.9 0h-1v-1h1v1zm-2 0h-1v-1h1v1zm-2 0h-1v-1h1v1zm-2 0h-1v-1h1v1zm-2 0h-1v-1h1v1zm-1.9 0h-1v-1h1v1zm13.8 0h-1v-1h.5c.3 0 .5.2.5.5v.5zm0 17.8h-1v-1h1v1zm0-15.8h-1v-1h1v1zm-1 12.8h1v1h-1zm0-1.9h1v1h-1zm0-2h1v1h-1z"/><path d="M17.6 11.5h1v1h-1z" opacity=".4"/><path d="M17.6 9.5h1v1h-1zm0-2h1v1h-1zm0-1.9h1v1h-1z"/><path d="M22 12.5h-5.8v-1H22l-2.7-2.7.7-.6 3.8 3.8-3.8 3.8-.7-.7 2.7-2.6z"/><path d="M22.2 14.9v2.8h-17V6.3h17v2.8l1 1V5.3h-19v13.4h19v-4.8z"/></svg>
