<?xml version="1.0" encoding="UTF-8"?>
<svg id="Layer_1" xmlns="http://www.w3.org/2000/svg" version="1.1" viewBox="0 0 25 24">
  <!-- Generator: Adobe Illustrator 30.0.0, SVG Export Plug-In . SVG Version: 2.1.1 Build 123)  -->
  <defs>
    <style>
      .st0 {
        fill: #fff;
        stroke: #000;
        stroke-miterlimit: 10;
        stroke-width: .4px;
      }
    </style>
  </defs>
  <polyline points="16.1762255 11.9073398 16.1762255 14.3073394 9.1762255 14.3073394 9.1762255 11.9073398 16.1762255 11.9073398"/>
  <rect class="st0" x="3.6515336" y="9.0716508" width="17.8179427" height="5.7356886"/>
  <path d="M19.3832762,12.1247909h-1.8529509v-.3705916h1.8529509l-.9264754-.9264754.1852958-.1852958,1.297067,1.297067-1.297067,1.297067-.1852958-.1852958.9264754-.9264754Z"/>
  <path d="M6.5951383,12.9182631c-.141884,0-.2660324-.0177356-.3901809-.0709419-.1241484-.0709419-.2305615-.1418838-.319239-.2305613s-.1596195-.1950905-.2128259-.319239c-.0532065-.1241484-.0886775-.2482969-.0886775-.3901809s.035471-.2660324.0886775-.3901809.1241484-.2305615.2128259-.319239.1950905-.1596195.319239-.2128259c.1241484-.0532065.2660324-.070942.3901809-.070942.141884,0,.2660324.0177355.3724455.070942s.2305615.106413.3192388.1950904c.0886775.0886774.1596194.1773549.2128261.2837679.0532064.106413.0709419.2305615.0709419.3547099,0,.1950905-.0532064.3369744-.177355.4433874s-.2660324.1596194-.4256518.1596194h-.1950905q-.0177356,0-.035471.0177356v.035471c0,.0177356.0177356.0532065.035471.0886775s.035471.0886773.035471.1241484c0,.0886775-.0177356.1418838-.0709419.1950905,0,.0177356-.0709419.0354711-.141884.0354708ZM6.0453379,12.0137527c.035471,0,.0886775-.0177356.106413-.035471s.035471-.0709419.035471-.106413c0-.035471-.0177356-.0886775-.035471-.106413-.035471-.035471-.0709419-.035471-.106413-.035471-.035471,0-.0886775.0177356-.106413.035471-.035471.035471-.035471.0709419-.035471.106413,0,.035471.0177356.0886775.035471.106413.0177356.0177356.0532065.035471.106413.035471ZM6.3468413,11.6058363c.035471,0,.0886775-.0177356.106413-.035471.035471-.035471.035471-.0709419.035471-.106413s0-.0886775-.035471-.1241484-.0709419-.035471-.106413-.035471-.0886775.0177356-.106413.035471c-.035471.035471-.035471.0709419-.035471.106413s.0177356.0886775.035471.106413c.0177356.035471.0532065.0532065.106413.0532064ZM6.8434352,11.6058363c.035471,0,.0886775-.0177356.106413-.035471.035471-.035471.035471-.0709419.035471-.106413s0-.0886775-.035471-.1241484-.0709419-.035471-.106413-.035471-.0886775.0177356-.106413.035471c-.035471.035471-.035471.0709419-.035471.106413s.0177356.0886775.035471.106413c.035471.035471.0709419.0532065.106413.0532064ZM7.1449386,12.0137527c.035471,0,.0886773-.0177356.1064129-.035471.0354711-.035471.0354711-.0709419.0354711-.106413,0-.035471-.0177356-.0886775-.0354711-.106413-.035471-.035471-.0709419-.035471-.106413-.035471s-.0886775.0177356-.106413.035471c-.035471.035471-.035471.0709419-.035471.106413,0,.035471.0177356.0886775.035471.106413s.0709419.035471.1064132.035471ZM6.5832069,12.7765495c.0187595,0,.0375188,0,.0375188-.0185085s.0187595-.0185085.0187595-.0370171-.0187595-.0555254-.0375188-.0925423-.0375188-.0925423-.0375188-.1480677c0-.0740338.0187595-.1295592.0750377-.1850846.0562783-.0370169.1125567-.0740338.1875944-.0740338h.1875944c.1125567,0,.2251132-.0370169.3001509-.0925423.0750377-.0740338.1313162-.166576.1313162-.3146437,0-.2035931-.0750377-.3886777-.2438727-.5367452s-.3564292-.203593-.5815424-.203593c-.2438727,0-.4502264.0740338-.6190614.2406099-.1688348.166576-.262632.3701691-.262632.5922706,0,.24061.0750377.4256946.2438727.5922706.1688348.2035929.3564292.277627.6003017.277627Z"/>
  <path d="M6.5951383,10.3111451c.8867748,0,1.5961946.7094198,1.5961946,1.5961946s-.7094198,1.5961946-1.5961946,1.5961946-1.5961946-.7094198-1.5961946-1.5961946.7094198-1.5961946,1.5961946-1.5961946M6.5951383,10.0983191c-1.0109232,0-1.8090206.7980974-1.8090206,1.8090206s.8158328,1.8090207,1.8090206,1.8090207c1.0109234,0,1.8090207-.8158329,1.8090207-1.8090206s-.7980973-1.8090208-1.8090207-1.8090208Z"/>
</svg>