<svg xmlns="http://www.w3.org/2000/svg" id="Layer_1" data-name="Layer 1" viewBox="0 0 25 24"><defs><style>.cls-1{fill:currentColor}</style></defs><path d="M18.75 11.27H3.25V4.48H1.7v8.38h17.05v-1.59z" class="cls-1"/><path d="M6.25 11.27h15.5V4.48h1.55v8.38H6.25v-1.59zM7.87 16.47v-.65h1.19v2.98H8.3v-2.33h-.42ZM13.26 14.92l-1.15 4.64h-.71l1.15-4.64h.71ZM15.29 15.99c.19-.16.44-.24.77-.24.21 0 .4.04.55.11.15.07.27.17.35.29.08.12.12.26.12.41 0 .18-.05.33-.14.44s-.2.19-.33.23v.02c.16.05.29.14.39.26.09.12.14.27.14.46 0 .17-.04.32-.12.45a.77.77 0 0 1-.36.3c-.16.07-.34.11-.56.11-.34 0-.62-.08-.82-.24-.2-.16-.31-.4-.32-.73h.71c0 .12.04.21.11.28.07.07.17.1.3.1.11 0 .2-.03.26-.09s.09-.14.09-.24c0-.13-.04-.23-.13-.28s-.23-.09-.42-.09h-.14v-.57h.14c.15 0 .26-.02.35-.07s.14-.13.14-.25c0-.1-.03-.17-.09-.23s-.14-.08-.24-.08c-.11 0-.19.03-.24.09a.43.43 0 0 0-.09.23h-.72c.01-.29.11-.52.3-.67Z" class="cls-1"/></svg>
