<svg xmlns="http://www.w3.org/2000/svg" id="Layer_1" version="1.1" viewBox="0 0 25 24"><defs><style>.st0{fill:currentColor}</style></defs><path d="M18.7 12H3.2V4.9H1.7v8.8h17V12z" class="st0"/><path d="M6.3 12h15.5V4.9h1.5v8.8h-17V12zM5.8 19.1c-1 0-1.8-.8-1.8-1.8s.8-1.8 1.8-1.8 1.8.8 1.8 1.8-.8 1.8-1.8 1.8ZM10.3 19.1c-1 0-1.8-.8-1.8-1.8s.8-1.8 1.8-1.8 1.8.8 1.8 1.8-.8 1.8-1.8 1.8Zm0-3.1c-.7 0-1.3.6-1.3 1.3s.6 1.3 1.3 1.3 1.3-.6 1.3-1.3S11 16 10.3 16ZM14.7 19.1c-1 0-1.8-.8-1.8-1.8s.8-1.8 1.8-1.8 1.8.8 1.8 1.8-.8 1.8-1.8 1.8Zm0-3.1c-.7 0-1.3.6-1.3 1.3s.6 1.3 1.3 1.3S16 18 16 17.3s-.6-1.3-1.3-1.3ZM19.2 19.1c-1 0-1.8-.8-1.8-1.8s.8-1.8 1.8-1.8 1.8.8 1.8 1.8-.8 1.8-1.8 1.8Zm0-3.1c-.7 0-1.3.6-1.3 1.3s.6 1.3 1.3 1.3 1.3-.6 1.3-1.3-.6-1.3-1.3-1.3Z" class="st0"/></svg>
