<svg xmlns="http://www.w3.org/2000/svg" id="Layer_1" version="1.1" viewBox="0 0 25 24"><defs><style>.st0{fill:currentColor}</style></defs><g id="cIlMzR"><path d="m15.8 11.8 7.8 3s.1.2 0 .3c0 .3-1.2 1.2-1.4 1.5 0 0 1.2 1.1 1.3 1.3s.1.2 0 .3c0 .4-1.4 1.4-1.7 1.8-.2.1-.3 0-.5 0-.4-.3-.9-1-1.3-1.3 0 0-1.1 1.2-1.3 1.3s-.4.1-.5-.1l-2.9-7.5c-.1-.3 0-.5.3-.5Zm6.9 3.4-6.2-2.3 2.3 6.2h.1c.3-.2 1-1.2 1.3-1.2s.2 0 .3.1c.4.3.8.9 1.2 1.2h.1c.3-.2.6-.7 1-1 0-.1-1.4-1.2-1.4-1.5v-.1c0-.2 1.3-1.3 1.3-1.4ZM13.9 10.8c-.1-.2-.5-.4-.5-.7s.3-.4.5-.3 1.2 1.2 1.2 1.3c0 .3-.2.5-.4.4s-.6-.5-.8-.7ZM16.6 8.6c.2 0 .4.2.4.3v1.6c0 .4-.7.4-.7-.2V8.8c0-.3.2-.3.3-.3ZM12.4 12.6h1.7c.3 0 .3.6-.1.7s-1.4 0-1.6 0c-.4 0-.3-.6 0-.7ZM18.8 11.3c-.4.4-.8 0-.7-.4s1.1-1.1 1.2-1.2c.3-.1.7.2.5.5l-1 1.1ZM15 15.1l-.8.8c-.2.2-.3.3-.5.2s-.3-.3-.1-.5l1.1-1.1c.5-.2.7.3.4.7Z" class="st0"/></g><path d="M6.9 16.6C5.4 16.6 4 16 3 15c-1.1-1.1-1.7-2.5-1.6-4.1C1.4 7.8 4 5.3 7 5.3h9.9c3 0 5.5 2.5 5.6 5.5v1.1c0 .3-.3.4-.5.4s-.3 0-.4-.2c-.1-.1-.1-.3-.1-.4v-1c-.1-2.5-2.1-4.4-4.6-4.4h-10c-2.5 0-4.6 2-4.6 4.6 0 1.3.5 2.4 1.3 3.3.9.9 2 1.3 3.2 1.3h5.1c.3 0 .5.2.5.5s-.2.5-.5.5H6.8Z" class="st0"/><path d="M16.8 5.4c3 0 5.5 2.4 5.6 5.4v1.1c0 .2-.2.4-.5.4s-.5-.3-.5-.6v-1c-.1-2.5-2.2-4.4-4.6-4.4H6.9c-2.5 0-4.6 2-4.6 4.6 0 2.6 2 4.7 4.6 4.7H12c.3 0 .5.2.5.5s-.2.5-.5.5H6.9c-3.1 0-5.5-2.5-5.5-5.7 0-3.1 2.5-5.6 5.6-5.6h9.9m-.1 0H6.9c-3.1 0-5.7 2.5-5.7 5.7 0 1.6.6 3 1.7 4.1 1.1 1.1 2.5 1.7 3.9 1.7h5.1c.3 0 .6-.3.6-.6s-.3-.6-.6-.6H6.8c-1.2 0-2.3-.5-3.1-1.3-.9-.9-1.3-2-1.3-3.3 0-2.5 2.1-4.5 4.5-4.5h9.9c2.4 0 4.4 1.9 4.5 4.3v1c0 .2 0 .3.1.5.1.1.3.2.4.2.3 0 .5-.2.6-.5v-1.1c0-3.1-2.6-5.5-5.7-5.5Z" class="st0"/></svg>
