<svg xmlns="http://www.w3.org/2000/svg" xml:space="preserve" id="Layer_1" x="0" y="0" style="enable-background:new 0 0 25 24" version="1.1" viewBox="0 0 25 24"><style>.st0{fill:currentColor}</style><g id="GHCm3L.tif"><path d="M15.1 15.5H9.8c-.4-.1-.7-.4-.8-.8V9.3c0-.1.1-.3.1-.4.2-.2.5-.4.9-.4h5.2c.3.1.6.3.7.6.1.1.1.2.1.4V14.7c-.1.4-.4.7-.8.8h-.1zm-2.6-.6h2.6c.1 0 .2-.1.3-.2V9.5c0-.1-.1-.2-.2-.3h-5.1c-.2 0-.3.1-.3.3v5.1c0 .1.1.2.2.3h2.5z" class="st0"/><path d="m13.2 13.1.3-.6c0-.1.1-.1.2-.2.1 0 .2 0 .3.1v.1c.2.4.5.8.7 1.2.1.1.1.2 0 .3 0 .1-.2.2-.3.2h-4.1c-.2 0-.3-.3-.2-.5.1-.1.1-.2.2-.4l1.2-2.1c.1-.1.2-.2.3-.2.1 0 .2.1.2.1v.1c.5.7.8 1.3 1.2 1.9-.1 0-.1 0 0 0zM13.8 10.1c.3 0 .6.3.6.6 0 .4-.3.6-.6.6-.4 0-.6-.3-.6-.6-.1-.3.2-.6.6-.6z" class="st0"/></g><path d="M6.9 17.8H2.7V6.2h4.2V5H1.5v14h5.4zM18.6 5v1.2h3.7v11.6h-3.7V19h4.9V5z" class="st0"/><path d="M17.7 3.6v16.9H7.3V3.6h10.4m1.2-1.3H6.1v19.4H19V2.3h-.1z" class="st0"/></svg>
