<svg xmlns="http://www.w3.org/2000/svg" id="Layer_1" version="1.1" viewBox="0 0 25 24"><defs><style>.st0{fill:currentColor}</style></defs><path d="M2.3 2.8v18.5h20.5V2.8H2.3Zm18.5 14.4H4.2V6.7h16.7v10.5Z" class="st0"/><g id="GHCm3L.tif"><path d="M14.1 14.2h-3.4c-.3 0-.4-.3-.5-.5V10c.1-.1.3-.3.6-.3h3.3c.2 0 .4.2.4.4v3.5c0 .4-.3.6-.5.6Zm-1.6-.4h1.6s.1 0 .2-.1v-3.2c0-.1 0-.2-.1-.3H11c-.1 0-.2 0-.2.2v3.2s0 .1.1.2h1.6Z" class="st0"/><path d="M12.9 12.7c0-.1.1-.3.2-.4l.1-.1h.2c.1.3.3.6.4.8v.2s-.1.1-.2.1H11c-.1 0-.2-.2-.1-.3 0 0 0-.1.1-.3.3-.4.5-.9.8-1.3 0 0 .1-.1.2-.1h.1c.3.5.5.9.8 1.3ZM13.3 10.8c.2 0 .4.2.4.4s-.2.4-.4.4-.4-.2-.4-.4.1-.4.4-.4Z" class="st0"/></g></svg>
