<?xml version="1.0" encoding="UTF-8"?>
<svg id="Layer_1" xmlns="http://www.w3.org/2000/svg" version="1.1" viewBox="0 0 25 24">
  <!-- Generator: Adobe Illustrator 30.0.0, SVG Export Plug-In . SVG Version: 2.1.1 Build 123)  -->
  <path d="M22.6169777,12.246166v1.7325592H2.532438v-1.7325592h20.0845397M23.0169773,11.8461654H2.1324379v2.5325603h20.8845394v-2.5325603h0Z"/>
  <path d="M18.5856075,15.8697097v1.7325597H6.563808v-1.7325597h12.0217996M18.9856071,15.4697092H6.1638079v2.5325603h12.8217993v-2.5325603h0Z"/>
  <path d="M12.354902,9.2415039c-.2564143,0-.4807766-.0320519-.705139-.128207-.2243624-.128207-.4166732-.256414-.576932-.4166728s-.288466-.3525697-.3846213-.576932c-.0961554-.2243624-.1602589-.4487247-.1602589-.705139s.0641035-.4807766.1602589-.705139.2243624-.4166732.3846213-.576932.3525697-.288466.576932-.3846213c.2243624-.0961554.4807766-.1282071.705139-.1282071.2564143,0,.4807766.0320517.6730874.1282071s.4166732.1923106.5769317.3525695c.1602589.1602587.2884659.3205176.3846216.5128284.0961551.1923108.128207.4166732.128207.6410355,0,.3525697-.0961551.6089836-.3205178.8012944s-.4807766.2884659-.7692425.2884659h-.3525697q-.0320519,0-.0641035.0320519v.0641035c0,.0320519.0320519.0961554.0641035.1602589s.0641035.1602586.0641035.2243624c0,.1602589-.0320519.256414-.128207.3525697,0,.0320519-.128207.0641038-.2564143.0641032ZM11.3612968,7.6068632c.0641035,0,.1602589-.0320519.1923108-.0641035s.0641035-.128207.0641035-.1923108c0-.0641035-.0320519-.1602589-.0641035-.1923108-.0641035-.0641035-.128207-.0641035-.1923108-.0641035-.0641035,0-.1602589.0320519-.1923108.0641035-.0641035.0641035-.0641035.128207-.0641035.1923108,0,.0641035.0320519.1602589.0641035.1923108.0320519.0320519.0961554.0641035.1923108.0641035ZM11.9061769,6.8696723c.0641035,0,.1602589-.0320519.1923108-.0641035.0641035-.0641035.0641035-.128207.0641035-.1923108s0-.1602589-.0641035-.2243624-.128207-.0641035-.1923108-.0641035-.1602589.0320519-.1923108.0641035c-.0641035.0641035-.0641035.128207-.0641035.1923108s.0320519.1602589.0641035.1923108c.0320519.0641035.0961554.0961554.1923108.0961551ZM12.8036267,6.8696723c.0641035,0,.1602589-.0320519.1923108-.0641035.0641035-.0641035.0641035-.128207.0641035-.1923108s0-.1602589-.0641035-.2243624-.128207-.0641035-.1923108-.0641035-.1602589.0320519-.1923108.0641035c-.0641035.0641035-.0641035.128207-.0641035.1923108s.0320519.1602589.0641035.1923108c.0641035.0641035.128207.0961554.1923108.0961551ZM13.3485068,7.6068632c.0641035,0,.1602586-.0320519.1923105-.0641035.0641038-.0641035.0641038-.128207.0641038-.1923108,0-.0641035-.0320519-.1602589-.0641038-.1923108-.0641035-.0641035-.128207-.0641035-.1923108-.0641035s-.1602589.0320519-.1923108.0641035c-.0641035.0641035-.0641035.128207-.0641035.1923108,0,.0641035.0320519.1602589.0641035.1923108s.128207.0641035.1923111.0641035ZM12.3333393,8.9853975c.0339024,0,.0678044,0,.0678044-.0334488s.0339024-.0334488.0339024-.0668976-.0339024-.1003461-.0678044-.1672434-.0678044-.1672434-.0678044-.2675895c0-.1337946.0339024-.2341407.1356089-.3344868.1017068-.0668973.2034136-.1337946.3390225-.1337946h.3390225c.2034136,0,.4068269-.0668973.5424358-.1672434.1356089-.1337946.237316-.301038.237316-.5686275,0-.3679356-.1356089-.7024224-.4407293-.9700116s-.6441426-.3679355-1.0509696-.3679355c-.4407293,0-.8136539.1337948-1.1187743.4348327-.3051201.301038-.4746314.6689736-.4746314,1.0703577,0,.4348329.1356089.7693197.4407293,1.0703577.3051201.3679353.6441426.5017305,1.0848716.5017305Z"/>
  <path d="M12.354902,4.5298926c1.6025888,0,2.8846599,1.2820711,2.8846599,2.8846599s-1.2820711,2.8846599-2.8846599,2.8846599-2.8846599-1.2820711-2.8846599-2.8846599,1.2820711-2.8846599,2.8846599-2.8846599M12.354902,4.1452712c-1.8269512,0-3.2692812,1.44233-3.2692812,3.2692812s1.4743816,3.2692814,3.2692812,3.2692814c1.8269515,0,3.2692814-1.4743818,3.2692814-3.2692811s-1.4423299-3.2692815-3.2692814-3.2692815Z"/>
</svg>