<svg xmlns="http://www.w3.org/2000/svg" xml:space="preserve" id="Layer_1" x="0" y="0" style="enable-background:new 0 0 25 24" version="1.1" viewBox="0 0 25 24"><style>.st0{fill:currentColor}</style><path d="M12.5 17.7c-.8 0-1.5-.1-2.2-.4-.7-.4-1.3-.8-1.8-1.3s-.9-1.1-1.2-1.8c-.3-.7-.5-1.4-.5-2.2 0-.8.2-1.5.5-2.2.3-.7.7-1.3 1.2-1.8s1.1-.9 1.8-1.2c.7-.3 1.5-.4 2.2-.4.8 0 1.5.1 2.1.4s1.3.6 1.8 1.1c.5.5.9 1 1.2 1.6.3.6.4 1.3.4 2 0 1.1-.3 1.9-1 2.5-.7.6-1.5.9-2.4.9h-1.1c-.1 0-.1 0-.2.1v.2c0 .1.1.3.2.5s.2.5.2.7c0 .5-.1.8-.4 1.1 0 .1-.4.2-.8.2zm-3.1-5.1c.2 0 .5-.1.6-.2s.2-.4.2-.6c0-.2-.1-.5-.2-.6-.2-.2-.4-.2-.6-.2-.2 0-.5.1-.6.2-.2.2-.2.4-.2.6 0 .2.1.5.2.6.1.1.3.2.6.2zm1.7-2.3c.2 0 .5-.1.6-.2.2-.2.2-.4.2-.6s0-.5-.2-.7c-.2-.2-.4-.2-.6-.2s-.5.1-.6.2c-.2.2-.2.4-.2.6s.1.5.2.6c.1.2.3.3.6.3zm2.8 0c.2 0 .5-.1.6-.2.2-.2.2-.4.2-.6s0-.5-.2-.7c-.2-.2-.4-.2-.6-.2s-.5.1-.6.2c-.2.2-.2.4-.2.6s.1.5.2.6c.2.2.4.3.6.3zm1.7 2.3c.2 0 .5-.1.6-.2.2-.2.2-.4.2-.6 0-.2-.1-.5-.2-.6-.2-.2-.4-.2-.6-.2s-.5.1-.6.2c-.2.2-.2.4-.2.6 0 .2.1.5.2.6s.4.2.6.2zm-3.1 3.9c.1 0 .2 0 .2-.1s.1-.1.1-.2-.1-.3-.2-.5-.2-.5-.2-.8c0-.4.1-.7.4-1 .3-.2.6-.4 1-.4h1c.6 0 1.2-.2 1.6-.5.4-.4.7-.9.7-1.7 0-1.1-.4-2.1-1.3-2.9s-1.9-1.1-3.1-1.1c-1.3 0-2.4.4-3.3 1.3-.9.9-1.4 2-1.4 3.2 0 1.3.4 2.3 1.3 3.2.9 1.1 1.9 1.5 3.2 1.5z" class="st0"/><path d="M12.5 3c5 0 9 4 9 9s-4 9-9 9-9-4-9-9 4-9 9-9m0-1.2C6.8 1.8 2.3 6.3 2.3 12s4.6 10.2 10.2 10.2c5.7 0 10.2-4.6 10.2-10.2S18.2 1.8 12.5 1.8z" class="st0"/></svg>
