<svg xmlns="http://www.w3.org/2000/svg" xml:space="preserve" id="Layer_1" x="0" y="0" style="enable-background:new 0 0 25 24" version="1.1" viewBox="0 0 25 24"><style>.st0{fill:currentColor}</style><g id="CwryJI_00000129184639845813549310000007475274244211757752_"><path d="m11.1 12.2-.4.4c-.1.1-.3.1-.4.1-.1 0-.2-.3-.1-.4.1-.9 1.2-2.1 2.1-2.3.9-.2 1.7.4 1.7 1.4V15.5l.5-.5c.1-.1.3-.1.4-.1.1 0 .2.2.1.4-.1.9-1.2 2.1-2.1 2.3-.9.2-1.7-.4-1.7-1.3v-3.7c0-.1 0-.2-.1-.4zM12.2 9.3c-.8 0-1.4-.6-1.4-1.4 0-.8.6-1.5 1.4-1.5.8 0 1.4.7 1.4 1.4 0 .8-.6 1.5-1.4 1.5z" class="st0"/></g><path d="M12.5 3c5 0 9 4 9 9s-4 9-9 9-9-4-9-9 4-9 9-9m0-1.2C6.8 1.8 2.3 6.3 2.3 12s4.6 10.2 10.2 10.2c5.7 0 10.2-4.6 10.2-10.2S18.2 1.8 12.5 1.8z" class="st0"/></svg>
