<svg xmlns="http://www.w3.org/2000/svg" xml:space="preserve" id="Layer_1" x="0" y="0" style="enable-background:new 0 0 25 24" version="1.1" viewBox="0 0 25 24"><style>.st0{fill:currentColor}</style><path d="M5.9 4.9h17v1.2h-17zM5.9 9.2h17v1.2h-17zM5.9 13.6h17v1.2h-17zM5.9 17.9h17v1.2h-17zM3.3 4.3c-.7 0-1.2.5-1.2 1.2s.5 1.2 1.2 1.2 1.2-.5 1.2-1.2c-.1-.7-.6-1.2-1.2-1.2zM3.3 8.7c-.7 0-1.2.5-1.2 1.2S2.6 11 3.3 11s1.2-.5 1.2-1.2-.6-1.1-1.2-1.1zM3.3 13c-.7 0-1.2.5-1.2 1.2s.5 1.2 1.2 1.2 1.2-.5 1.2-1.2c-.1-.7-.6-1.2-1.2-1.2zM3.3 17.3c-.7 0-1.2.5-1.2 1.2s.5 1.2 1.2 1.2 1.2-.5 1.2-1.2c-.1-.6-.6-1.2-1.2-1.2z" class="st0"/></svg>
