<svg xmlns="http://www.w3.org/2000/svg" xml:space="preserve" id="Layer_1" x="0" y="0" style="enable-background:new 0 0 40 40" version="1.1" viewBox="0 0 40 40"><style>.st0{fill:#6e4bfc}</style><path d="M33.1 6.7c.1 0 .3.1.3.3v26c0 .1-.1.3-.3.3H6.9c-.1 0-.3-.1-.3-.3V7c0-.1.1-.3.3-.3h26.2m0-.7H6.9c-.6 0-1 .5-1 1v26c0 .6.5 1 1 1h26.3c.6 0 1-.5 1-1V7c-.1-.6-.5-1-1.1-1z"/><path d="M6.3 17.2h27.4v.8H6.3z"/><path d="M8.5 21.6h23.1v.9H8.5zM8.5 25.1h23.1v.9H8.5zM8.5 28.5h23.1v.9H8.5z" class="st0"/></svg>