<svg xmlns="http://www.w3.org/2000/svg" id="Layer_1" version="1.1" viewBox="0 0 25 24"><defs><style>.st0{fill:currentColor}</style></defs><path d="M2.9 2.9h15v1.2h-15zM6.4 10.2h12.9v1.2H6.4zM6.4 13.2h6.2v1.2H6.4zM6.4 16.2h10.2v1.2H6.4zM20.9 4.7l-1.5-1.6.7-.7.8.8.9-.8.7.7-1.6 1.6z" class="st0"/><path d="M20.9 7.8v12.1H4.1V7.8h16.8m1.3-1.3H2.9v14.6h19.3V6.5ZM2.9 2.9h15v1.2h-15z" class="st0"/><path d="M6.4 10.2h12.9v1.2H6.4zM6.4 13.2h6.2v1.2H6.4zM6.4 16.2h10.2v1.2H6.4zM20.9 4.7l-1.5-1.6.7-.7.8.8.9-.8.7.7-1.6 1.6z" class="st0"/></svg>
