<svg xmlns="http://www.w3.org/2000/svg" id="Layer_1" version="1.1" viewBox="0 0 25 24"><defs><style>.st0{fill:currentColor}</style></defs><path d="m7.2 14.1 5.6-1.6 1.6-5.6-5.6 1.6-1.6 5.6Zm3.6-2.4c-.3 0-.6 0-.9-.3s-.3-.6-.3-.9 0-.6.3-.9c.2-.2.5-.3.9-.3s.6 0 .9.3c.2.2.3.5.3.9s0 .6-.3.9c-.2.2-.6.3-.9.3Z" class="st0"/><path d="M3.7 10.5c0-4 3.2-7.2 7.2-7.2s7.2 3.2 7.2 7.2 0 .8-.1 1.2c.3-.3.6-.6 1-.7v-.5c0-4.5-3.6-8.1-8.1-8.1S2.7 6 2.7 10.5s3.7 8.1 8.1 8.1h.9c0-.4.1-.7.3-1-.4 0-.8.1-1.3.1-4 0-7.2-3.2-7.2-7.2Z" class="st0"/><path d="M19.6 11.7c2.2-.2 3.5 2.3 2.2 4-.7.7-1.4 1.5-2.1 2.1s-1.9.8-2.8.3-.6-.4-.7-.6c-.2-.6.4-1.1.9-.8s.2.1.2.2c.5.4 1.1.3 1.6 0 .6-.6 1.3-1.2 1.9-1.9.8-.9 0-2.3-1.2-2s-1 .9-1.5 1.2-1.4-.3-.9-.9.7-.7 1-1 .9-.6 1.5-.6Z" class="st0"/><path d="M16.6 14.8c.7 0 1.5.2 2 .8s-.2 1.3-.8.9-.2-.1-.2-.2c-.5-.4-1.1-.3-1.6 0-.6.6-1.3 1.2-1.9 1.9-.8.9 0 2.3 1.2 2s1-.9 1.5-1.2 1.3.2.9.8c-.7.8-1.4 1.6-2.6 1.7-2.3.1-3.5-2.5-2-4.2s1.3-1.3 2-2c.4-.4.9-.6 1.5-.6Z" class="st0"/></svg>
