<svg xmlns="http://www.w3.org/2000/svg" id="Layer_1" version="1.1" viewBox="0 0 25 24"><defs><style>.st0{fill:currentColor}</style></defs><path d="M2.4 9.4h8.8v1.2H2.4zM2.4 12.9h8.8v1.2H2.4zM2.4 16.4h8.8v1.2H2.4zM2.4 20h8.8v1.2H2.4zM13.9 9.4h8.8v1.2h-8.8zM13.9 12.9h8.8v1.2h-8.8zM13.9 16.4h8.8v1.2h-8.8zM13.9 20h8.8v1.2h-8.8zM2.6 3.7v-.9h1.5v3.9h-1V3.6h-.5ZM14.3 6c.4-.3.6-.5.8-.7.2-.2.4-.4.5-.6.1-.2.2-.4.2-.6s0-.3-.1-.3c0 0-.2-.1-.3-.1s-.2 0-.3.2c0 .1-.1.2-.1.4h-.9c0-.3 0-.6.2-.8.1-.2.3-.4.5-.5s.4-.1.7-.1c.4 0 .7.1 1 .3.2.2.3.5.3.9s-.1.7-.4 1.1l-1 1h1.4v.7h-2.7v-.7c.1 0 .2-.1.2-.1Z" class="st0"/></svg>
