<svg xmlns="http://www.w3.org/2000/svg" xml:space="preserve" id="Layer_1" x="0" y="0" style="enable-background:new 0 0 40 40" version="1.1" viewBox="0 0 40 40"><style>.st0{fill:#6e4bfc}</style><path d="M3.6 8.6v22.8h32.8V8.6H3.6zM31 26.8H9.1V13.3H31v13.5z"/><path d="M31.2 27.3H8.8V12.8h22.3v14.5zm-21.4-1h20.3V13.8H9.8v12.5z" class="st0"/><g id="_x38_HPWnq_00000086652635372659176950000013747684707033987993_"><path d="M20 16.7c1.8 0 3.3 1.5 3.3 3.3 0 1.7-1.4 3.3-3.4 3.2-1.7-.1-3.2-1.5-3.2-3.3.1-1.7 1.5-3.2 3.3-3.2zm0 6.1c1.5 0 2.8-1.2 2.8-2.7 0-1.6-1.3-2.9-2.8-2.9-1.5 0-2.8 1.2-2.8 2.8 0 1.5 1.2 2.8 2.8 2.8z" class="st0"/><path d="M19.2 21.3v-2.6c.8.4 1.5.9 2.3 1.3-.8.4-1.5.9-2.3 1.3z" class="st0"/></g></svg>