<svg xmlns="http://www.w3.org/2000/svg" xml:space="preserve" id="Layer_1" x="0" y="0" style="enable-background:new 0 0 40 40" version="1.1" viewBox="0 0 40 40"><style>.st0{fill:#6e4bfc}</style><path d="M22.8 12.5h-6.9c-.6 0-1.1-.5-1.1-1.1v-3h7.9v4.1zm-7-3.1v2.1l5.9.1V9.4h-5.9z"/><path d="M28.6 12.5H23c-.6 0-1.2-.5-1.2-1.2V9.6c0-.6.5-1.2 1.2-1.2h5.6c.6 0 1.2.5 1.2 1.2v1.8c-.1.6-.6 1.1-1.2 1.1zm-5.7-3.1c-.1 0-.2.1-.2.2v1.8c0 .1.1.2.2.2h5.6c.1 0 .2-.1.2-.2V9.6c0-.1-.1-.2-.2-.2h-5.6z"/><path d="M32.9 31.6H7.1c-.6 0-1.1-.5-1.1-1.1v-21c0-.6.5-1.1 1.1-1.1h7.7c.6 0 1.1.5 1.1 1.1v1.9c0 .1 0 .1.1.1h17c.6 0 1.1.5 1.1 1.1v17.9c-.1.6-.5 1.1-1.2 1.1zM7.1 9.4c-.1 0-.1 0 0 0L7 30.5c0 .1 0 .1.1.1H33c.1 0 .1 0 .1-.1V12.6c0-.1 0-.1-.1-.1H16c-.6 0-1.1-.5-1.1-1.1V9.5c0-.1 0-.1-.1-.1H7.1z"/><path d="M30.4 17.6H9.6v1h20.8v-1zM30.4 21.1H9.6v.9h20.8v-.9zM30.4 24.5H9.6v1h20.8v-1z" class="st0"/></svg>