<svg xmlns="http://www.w3.org/2000/svg" xml:space="preserve" id="Layer_1" x="0" y="0" style="enable-background:new 0 0 40 40" version="1.1" viewBox="0 0 40 40"><style>.st0{fill:#6e4bfc}</style><path d="M21.8 11.6h-1c.1.1.2.2.2.3h1.9V8.5h-8v1.1h1v-.1h5.9v2.1z"/><path d="M29.7 11.9c0-.1.1-.3.1-.4V9.6c-.1-.6-.6-1.1-1.2-1.1H23c-.6 0-1.2.5-1.2 1.2v1.8c0 .1 0 .3.1.4h7.8zm-7-2.3c0-.1.1-.2.2-.2h5.6c.1 0 .2.1.2.2v1.8c0 .1-.1.2-.2.2h-5.6c-.1 0-.2-.1-.2-.2V9.6zM14.8 8.5H7.1C6.4 8.5 6 9 6 9.6v2h1v-2c0-.1 0-.1.1-.1h7.7c.1 0 .1 0 .1.1v2h1s-.1 0-.1-.1V9.6c.1-.6-.4-1.1-1-1.1z"/><path d="M14.8 8.5H7.1C6.4 8.5 6 9 6 9.6v2h1v-2c0-.1 0-.1.1-.1h7.7c.1 0 .1 0 .1.1v2h1s-.1 0-.1-.1V9.6c.1-.6-.4-1.1-1-1.1zM30.4 17.7H9.6v1h20.8zM30.4 21.2H9.6v.9h20.8zM30.4 24.6H9.6v1h20.8z"/><path d="M32.9 11.6H15c0 .6.5 1 1.1 1h17c.1 0 .1 0 .1.1v17.9c0 .1 0 .1-.1.1h-26c-.1 0-.1 0-.1-.1v-19H6v19c0 .6.5 1.1 1.1 1.1H33c.6 0 1.1-.5 1.1-1.1V12.7c-.1-.6-.5-1.1-1.2-1.1z" class="st0"/><path d="M14.6 12.5h-.5v-1h.5v1zm-1 0h-.5v-1h.5v1zm-1 0h-.5v-1h.5v1zm-1 0h-.5v-1h.5v1zm-.9 0h-.5v-1h.5v1zm-1 0h-.5v-1h.5v1zm-1 0h-.5v-1h.5v1zm-1 0h-.5v-1h.5v1z" class="st0"/></svg>