<svg xmlns="http://www.w3.org/2000/svg" xml:space="preserve" id="Layer_1" x="0" y="0" style="enable-background:new 0 0 40 40" version="1.1" viewBox="0 0 40 40"><style>.st0{fill:#6e4bfc}.st1{fill:none;stroke:#000;stroke-miterlimit:10}</style><path d="M21.9 14h-4.5c-.3 0-.6-.2-.6-.6v-1.7h5V14zM26.3 14h-3.7c-.4 0-.7-.3-.7-.7v-1c0-.4.3-.7.7-.7h3.7c.4 0 .7.3.7.7v1c-.1.4-.4.7-.7.7z" class="st1"/><path d="M29.6 28.3H10.9c-.5 0-.9-.4-.9-.9V12.2c0-.5.4-.9.9-.9h5.6c.5 0 .9.4.9.9v1.3h12.2c.5 0 .9.4.9.9v12.9c0 .6-.4 1-.9 1zM16.4 12.2l-5.5.1.1 1.8v13.4l18.7-.1-.1-12.9-12.2.1c-.5 0-.9-.4-.9-.9v-1.5z"/><path d="M27.7 18h-15v.7h15V18zM27.7 20.5h-15v.7h15v-.7zM27.7 23h-15v.7h15V23z"/><path d="M34.3 34.3h-1.5v-1h.5v-.5h1zM30.8 34.3h-2v-1h2v1zm-3.9 0h-2v-1h2v1zm-4 0h-2v-1h2v1zm-3.9 0h-2v-1h2v1zm-3.9 0h-2v-1h2v1zm-3.9 0h-2v-1h2v1zM7.2 34.3H5.7v-1.5h1v.5h.5zM6.7 30.8h-1v-2h1v2zm0-3.9h-1v-2h1v2zm0-4h-1v-2h1v2zm0-3.9h-1v-2h1v2zm0-3.9h-1v-2h1v2zm0-3.9h-1v-2h1v2zM6.7 7.2h-1V5.7h1.5v1h-.5zM30.8 6.7h-2v-1h2v1zm-3.9 0h-2v-1h2v1zm-4 0h-2v-1h2v1zm-3.9 0h-2v-1h2v1zm-3.9 0h-2v-1h2v1zm-3.9 0h-2v-1h2v1zM34.3 7.2h-1v-.5h-.5v-1h1.5zM34.3 30.8h-1v-2h1v2zm0-3.9h-1v-2h1v2zm0-4h-1v-2h1v2zm0-3.9h-1v-2h1v2zm0-3.9h-1v-2h1v2zm0-3.9h-1v-2h1v2z" class="st0"/></svg>