<svg xmlns="http://www.w3.org/2000/svg" xml:space="preserve" id="Layer_1" x="0" y="0" style="enable-background:new 0 0 40 40" version="1.1" viewBox="0 0 40 40"><style>.st0{fill:#6e4bfc}</style><path d="M14.9 8.4v2.7c.3.1.6.2.9.4 0-.1.1.1.1.1V9.4h5.8v2.1h-1c.3.3.4.6.6 1h1.5V8.4h-7.9z" class="st0"/><path d="M28.6 12.5H23c-.6 0-1.2-.5-1.2-1.2V9.6c0-.6.5-1.2 1.2-1.2h5.6c.6 0 1.2.5 1.2 1.2v1.8c-.1.6-.6 1.1-1.2 1.1zm-5.7-3.1c-.1 0-.2.1-.2.2v1.8c0 .1.1.2.2.2h5.6c.1 0 .2-.1.2-.2V9.6c0-.1-.1-.2-.2-.2h-5.6zM7 11.5v-2c0-.1 0-.1.1-.1h7.7c.1 0 .1 0 .1.1v2h1s-.1 0-.1-.1V9.5c0-.6-.5-1.1-1.1-1.1H7.1c-.7 0-1.1.5-1.1 1.1v2h1z" class="st0"/><path d="M7 11.5v-2c0-.1 0-.1.1-.1h7.7c.1 0 .1 0 .1.1v2h1s-.1 0-.1-.1V9.5c0-.6-.5-1.1-1.1-1.1H7.1c-.7 0-1.1.5-1.1 1.1v2h1z" class="st0"/><path d="M30.4 17.6H9.6v1h20.8zM30.4 21.1H9.6v.9h20.8zM30.4 24.5H9.6v1h20.8z"/><path d="M32.9 11.5h-18c0 .6.6 1 1.2 1h17c.1 0 .1 0 .1.1v17.9c0 .1 0 .1-.1.1h-26c-.1 0-.1 0-.1-.1v-19H6v19c0 .6.5 1.1 1.1 1.1H33c.6 0 1.1-.5 1.1-1.1V12.6c-.1-.6-.5-1.1-1.2-1.1z"/><path d="M14.6 12.5h-.5v-1h.5v1zm-1 0h-.5v-1h.5v1zm-1 0h-.5v-1h.5v1zm-1 0h-.5v-1h.5v1zm-.9 0h-.5v-1h.5v1zm-1 0h-.5v-1h.5v1zm-1 0h-.5v-1h.5v1zm-1 0h-.5v-1h.5v1z" class="st0"/></svg>