<svg xmlns="http://www.w3.org/2000/svg" id="Layer_1" data-name="Layer 1" viewBox="0 0 25 24"><defs><style>.cls-1{fill:currentColor}</style></defs><path d="M14.31 8.89H9.48c-.66 0-1.21.66-1.21 1.54v3.62h6.15c.66 0 1.21-.66 1.21-1.54v-2.09c-.11-.88-.66-1.54-1.32-1.54Zm.22 3.62v1.1h-1.98v-.66H9.26v-2.53c0-.33.11-.44.22-.44h4.94s.22.11.22.44v2.09h-.11Z" class="cls-1"/><path d="M20.79 9.99s.11.22.11.44v2.53h-5.16v-2.53c0-.22.11-.44.11-.44h4.94m0-1.1h-4.94c-.66 0-1.21.66-1.21 1.54v3.62H22v-3.62c0-.88-.55-1.54-1.21-1.54Z" class="cls-1"/><path d="M2.45 15.55v-6h5.82v4.5h14.49v1.5h.99v-2.6H9.26c0-.11.11-.22.11-.44V9.55c0-.66-.44-1.1-.99-1.1H2.23c-.55 0-.99.44-.99 1.1v6h1.21Z" class="cls-1"/></svg>
