<svg xmlns="http://www.w3.org/2000/svg" xml:space="preserve" id="Layer_1" x="0" y="0" style="enable-background:new 0 0 25 24" version="1.1" viewBox="0 0 25 24"><style>.st0{fill:currentColor}</style><path d="M14.1 2.6H9.7c-.6 0-1.1.6-1.1 1.4v3.3h5.6c.6 0 1.1-.6 1.1-1.4V4c-.1-.8-.6-1.4-1.2-1.4zm.2 3.3v1h-1.8v-.6h-3V4c0-.3.1-.4.2-.4h4.5s.2.1.2.4v1.9z" class="st0"/><path d="M20 3.6s.1.2.1.4v2.3h-4.7V4c0-.2.1-.4.1-.4H20m0-1h-4.5c-.6 0-1.1.6-1.1 1.4v3.3h6.7V4c0-.8-.5-1.4-1.1-1.4z" class="st0"/><path d="M8.7 2.2H3.1c-.5 0-.9.4-.9 1v18.1h20.5v-15H9.5c0-.1.1-.2.1-.4V3.2c0-.6-.4-1-.9-1zm-.1 1v4.1h13.2v13H3.3V3.2h5.3z" class="st0"/></svg>
