<svg xmlns="http://www.w3.org/2000/svg" width="25" height="26" fill="none"><path fill="currentColor" d="M3.1 14.6v-4.4c0-.6.6-1.1 1.4-1.1h3.3v5.6c0 .6-.6 1.1-1.4 1.1H4.5c-.8-.1-1.4-.6-1.4-1.2Zm3.3.2h1V13h-.6v-3H4.5c-.3 0-.4.1-.4.2v4.5s.1.2.4.2h1.9v-.1Z"/><path fill="currentColor" d="M4.1 20.5s.2.1.4.1h2.3v-4.7H4.5c-.2 0-.4.1-.4.1v4.5Zm-1 0V16c0-.6.6-1.1 1.4-1.1h3.3v6.7H4.5c-.8 0-1.4-.5-1.4-1.1Z"/><path fill="currentColor" d="M2.7 9.2V3.6c0-.5.4-.9 1-.9h18.1v20.5h-15V10c-.1 0-.2.1-.4.1H3.7c-.6 0-1-.4-1-.9Zm1-.1h4.1v13.2h13V3.8H3.7v5.3Z"/></svg>
