<?xml version="1.0" encoding="utf-8"?><svg xmlns="http://www.w3.org/2000/svg" xmlns:xlink="http://www.w3.org/1999/xlink"><symbol viewBox="0 0 48 48" id="accordion-arrow" xmlns="http://www.w3.org/2000/svg"><path d="m24 30.8-12-12 2.15-2.15L24 26.5l9.85-9.85L36 18.8Z"/></symbol><symbol xml:space="preserve" id="accordion-group" style="enable-background:new 0 0 40 40" viewBox="0 0 40 40" xmlns="http://www.w3.org/2000/svg"><style>.bst0{fill:#6e4bfc}</style><path d="M33.1 16.4c.2 0 .4.2.4.4v6.6c0 .2-.2.4-.4.4H6.9c-.2 0-.4-.2-.4-.4v-6.6c0-.2.2-.4.4-.4h26.2m0-.7H6.9c-.6 0-1.1.5-1.1 1.1v6.6c0 .6.5 1.1 1.1 1.1h26.2c.6 0 1.1-.5 1.1-1.1v-6.6c-.1-.6-.5-1.1-1.1-1.1z"/><path d="M30 21.2c-.1 0-.2 0-.3-.1l-1.4-1.5c-.1-.1-.1-.4 0-.5.1-.1.4-.1.5 0l1.1 1.3 1.1-1.3c.1-.1.3-.2.5 0 .1.1.2.3 0 .5l-1.4 1.5c.1.1 0 .1-.1.1zM8.6 19.6h17.3v.9H8.6z" class="bst0"/><path d="M33.1 6.7c.2 0 .4.2.4.4v6.6c0 .2-.2.4-.4.4H6.9c-.2 0-.4-.2-.4-.4V7c0-.2.2-.4.4-.4h26.2m0-.6H6.9c-.6 0-1 .5-1 1v6.6c0 .6.5 1.1 1.1 1.1h26.2c.6 0 1.1-.5 1.1-1.1V7c-.2-.5-.6-1-1.2-1z"/><path d="M30 11.5c-.1 0-.2 0-.3-.1l-1.4-1.5c-.1-.1-.1-.4 0-.5.1-.1.4-.1.5 0l1.1 1.3L31 9.4c.1-.1.3-.2.5 0 .1.1.2.3 0 .5l-1.4 1.5c.1 0 0 .1-.1.1zM8.6 9.8h17.3v.9H8.6z" class="bst0"/><path d="M33.1 26c.2 0 .4.2.4.4V33c0 .2-.2.4-.4.4H6.9c-.2 0-.4-.2-.4-.4v-6.6c0-.2.2-.4.4-.4h26.2m0-.7H6.9c-.6 0-1.1.5-1.1 1.1V33c0 .6.5 1.1 1.1 1.1h26.2c.6 0 1.1-.5 1.1-1.1v-6.6c-.1-.7-.5-1.1-1.1-1.1z"/><path d="M30 30.8c-.1 0-.2 0-.3-.1l-1.4-1.5c-.1-.1-.1-.4 0-.5.1-.1.4-.1.5 0l1.1 1.3 1.1-1.3c.1-.1.3-.2.5 0 .1.1.2.3 0 .5l-1.4 1.5c.1 0 0 .1-.1.1zM8.6 29.1h17.3v.9H8.6z" class="bst0"/></symbol><symbol xml:space="preserve" style="enable-background:new 0 0 40 40" viewBox="0 0 40 40" id="accordion-single" xmlns="http://www.w3.org/2000/svg"><path d="M33.1 6.7c.1 0 .3.1.3.3v26c0 .1-.1.3-.3.3H6.9c-.1 0-.3-.1-.3-.3V7c0-.1.1-.3.3-.3h26.2m0-.7H6.9c-.6 0-1 .5-1 1v26c0 .6.5 1 1 1h26.3c.6 0 1-.5 1-1V7c-.1-.6-.5-1-1.1-1z"/><path d="M29.8 9.2c.1 0 .2 0 .3.1l1.4 1.5c.1.1.1.4 0 .5-.1.1-.4.1-.5 0L29.9 10l-1.1 1.3c-.1.1-.3.2-.5 0-.1-.1-.2-.3 0-.5l1.4-1.5c-.1 0 0-.1.1-.1zm-21.3.6h17.3v.9H8.5z" style="fill:#6e4bfc"/><path d="M31.5 15.3h-23v.9h23v-.9zm0 3.4h-23v1h23v-1zm0 6.9h-23v1h23v-1zm0 3.5h-23v.9h23v-.9zm0-6.9h-23v.9h23v-.9z"/></symbol><symbol fill="none" viewBox="0 0 7 12" id="back-arrow" xmlns="http://www.w3.org/2000/svg"><path d="M5.84 11.5.507 6.167 5.84.833" stroke="currentColor" stroke-linecap="round" stroke-linejoin="round"/></symbol><symbol fill="none" viewBox="0 0 16 16" id="chevron-left" xmlns="http://www.w3.org/2000/svg"><path d="M9.656 13.496 4.323 8.163l5.333-5.334" stroke="currentColor" stroke-linecap="round" stroke-linejoin="round"/></symbol><symbol fill="none" viewBox="0 0 16 16" id="chevron-right" xmlns="http://www.w3.org/2000/svg"><path d="m5.656 2.828 5.334 5.333-5.334 5.334" stroke="currentColor" stroke-linecap="round" stroke-linejoin="round"/></symbol><symbol xml:space="preserve" style="enable-background:new 0 0 40 40" viewBox="0 0 40 40" id="manual-post-select" xmlns="http://www.w3.org/2000/svg"><path d="M33.1 6.7c.1 0 .3.1.3.3v26c0 .1-.1.3-.3.3H6.9c-.1 0-.3-.1-.3-.3V7c0-.1.1-.3.3-.3h26.2m0-.7H6.9c-.6 0-1 .5-1 1v26c0 .6.5 1 1 1h26.3c.6 0 1-.5 1-1V7c-.1-.6-.5-1-1.1-1z"/><path d="M6.3 17.2h27.4v.8H6.3z"/><path d="M8.5 21.6h23.1v.9H8.5zm0 3.5h23.1v.9H8.5zm0 3.4h23.1v.9H8.5z" style="fill:#6e4bfc"/></symbol><symbol xml:space="preserve" style="enable-background:new 0 0 10.9 11" viewBox="0 0 10.9 11" fill="currentColor" id="menu-close-icon" xmlns="http://www.w3.org/2000/svg"><path d="M.6 11H.4c-.1 0-.1-.1-.2-.1-.2-.2-.2-.5 0-.7l4.6-4.7L.2.8C0 .6 0 .4.2.2s.5-.2.7 0l4.6 4.6L10.1.2c.2-.2.5-.2.7 0s.2.5 0 .7L6.2 5.4l4.6 4.6c.2.2.2.5 0 .7-.2.2-.5.2-.7 0L5.5 6.1l-.6.6-1.1 1.1-1.4 1.4-1.3 1.3-.2.2-.3.3z"/></symbol><symbol fill="currentcolor" viewBox="0 0 16 16" id="menu-open-icon" xmlns="http://www.w3.org/2000/svg"><path d="M0 3h16v1H0zm0 4.333h16v1H0zm0 4.334h16v1H0z"/></symbol><symbol viewBox="0 0 16 16" fill="none" id="minus" xmlns="http://www.w3.org/2000/svg"><path fill="currentColor" d="M15 7.5v1H1v-1z"/></symbol><symbol viewBox="0 0 16 16" fill="none" id="plus" xmlns="http://www.w3.org/2000/svg"><path fill="currentColor" d="M15 7.5v1H1v-1z"/><path fill="currentColor" d="M7.5 1h1v14h-1z"/></symbol><symbol xml:space="preserve" style="enable-background:new 0 0 40 40" viewBox="0 0 40 40" id="tab-group" xmlns="http://www.w3.org/2000/svg"><path d="M21.9 14h-4.5c-.3 0-.6-.2-.6-.6v-1.7h5V14zm4.4 0h-3.7c-.4 0-.7-.3-.7-.7v-1c0-.4.3-.7.7-.7h3.7c.4 0 .7.3.7.7v1c-.1.4-.4.7-.7.7z" style="fill:none;stroke:#000;stroke-miterlimit:10"/><path d="M29.6 28.3H10.9c-.5 0-.9-.4-.9-.9V12.2c0-.5.4-.9.9-.9h5.6c.5 0 .9.4.9.9v1.3h12.2c.5 0 .9.4.9.9v12.9c0 .6-.4 1-.9 1zM16.4 12.2l-5.5.1.1 1.8v13.4l18.7-.1-.1-12.9-12.2.1c-.5 0-.9-.4-.9-.9v-1.5z"/><path d="M27.7 18h-15v.7h15V18zm0 2.5h-15v.7h15v-.7zm0 2.5h-15v.7h15V23z"/><path d="M34.3 34.3h-1.5v-1h.5v-.5h1zm-3.5 0h-2v-1h2v1zm-3.9 0h-2v-1h2v1zm-4 0h-2v-1h2v1zm-3.9 0h-2v-1h2v1zm-3.9 0h-2v-1h2v1zm-3.9 0h-2v-1h2v1zm-4 0H5.7v-1.5h1v.5h.5zm-.5-3.5h-1v-2h1v2zm0-3.9h-1v-2h1v2zm0-4h-1v-2h1v2zm0-3.9h-1v-2h1v2zm0-3.9h-1v-2h1v2zm0-3.9h-1v-2h1v2zm0-4h-1V5.7h1.5v1h-.5zm24.1-.5h-2v-1h2v1zm-3.9 0h-2v-1h2v1zm-4 0h-2v-1h2v1zm-3.9 0h-2v-1h2v1zm-3.9 0h-2v-1h2v1zm-3.9 0h-2v-1h2v1zm23.1.5h-1v-.5h-.5v-1h1.5zm0 23.6h-1v-2h1v2zm0-3.9h-1v-2h1v2zm0-4h-1v-2h1v2zm0-3.9h-1v-2h1v2zm0-3.9h-1v-2h1v2zm0-3.9h-1v-2h1v2z" style="fill:#6e4bfc"/></symbol><symbol xml:space="preserve" id="tab-list" style="enable-background:new 0 0 40 40" viewBox="0 0 40 40" xmlns="http://www.w3.org/2000/svg"><style>.mst0{fill:#6e4bfc}</style><path d="M14.9 8.4v2.7c.3.1.6.2.9.4 0-.1.1.1.1.1V9.4h5.8v2.1h-1c.3.3.4.6.6 1h1.5V8.4h-7.9z" class="mst0"/><path d="M28.6 12.5H23c-.6 0-1.2-.5-1.2-1.2V9.6c0-.6.5-1.2 1.2-1.2h5.6c.6 0 1.2.5 1.2 1.2v1.8c-.1.6-.6 1.1-1.2 1.1zm-5.7-3.1c-.1 0-.2.1-.2.2v1.8c0 .1.1.2.2.2h5.6c.1 0 .2-.1.2-.2V9.6c0-.1-.1-.2-.2-.2h-5.6zM7 11.5v-2c0-.1 0-.1.1-.1h7.7c.1 0 .1 0 .1.1v2h1s-.1 0-.1-.1V9.5c0-.6-.5-1.1-1.1-1.1H7.1c-.7 0-1.1.5-1.1 1.1v2h1z" class="mst0"/><path d="M7 11.5v-2c0-.1 0-.1.1-.1h7.7c.1 0 .1 0 .1.1v2h1s-.1 0-.1-.1V9.5c0-.6-.5-1.1-1.1-1.1H7.1c-.7 0-1.1.5-1.1 1.1v2h1z" class="mst0"/><path d="M30.4 17.6H9.6v1h20.8zm0 3.5H9.6v.9h20.8zm0 3.4H9.6v1h20.8z"/><path d="M32.9 11.5h-18c0 .6.6 1 1.2 1h17c.1 0 .1 0 .1.1v17.9c0 .1 0 .1-.1.1h-26c-.1 0-.1 0-.1-.1v-19H6v19c0 .6.5 1.1 1.1 1.1H33c.6 0 1.1-.5 1.1-1.1V12.6c-.1-.6-.5-1.1-1.2-1.1z"/><path d="M14.6 12.5h-.5v-1h.5v1zm-1 0h-.5v-1h.5v1zm-1 0h-.5v-1h.5v1zm-1 0h-.5v-1h.5v1zm-.9 0h-.5v-1h.5v1zm-1 0h-.5v-1h.5v1zm-1 0h-.5v-1h.5v1zm-1 0h-.5v-1h.5v1z" class="mst0"/></symbol><symbol xml:space="preserve" style="enable-background:new 0 0 40 40" viewBox="0 0 40 40" id="tab-panel" xmlns="http://www.w3.org/2000/svg"><path d="M22.8 12.5h-6.9c-.6 0-1.1-.5-1.1-1.1v-3h7.9v4.1zm-7-3.1v2.1l5.9.1V9.4h-5.9z"/><path d="M28.6 12.5H23c-.6 0-1.2-.5-1.2-1.2V9.6c0-.6.5-1.2 1.2-1.2h5.6c.6 0 1.2.5 1.2 1.2v1.8c-.1.6-.6 1.1-1.2 1.1zm-5.7-3.1c-.1 0-.2.1-.2.2v1.8c0 .1.1.2.2.2h5.6c.1 0 .2-.1.2-.2V9.6c0-.1-.1-.2-.2-.2h-5.6z"/><path d="M32.9 31.6H7.1c-.6 0-1.1-.5-1.1-1.1v-21c0-.6.5-1.1 1.1-1.1h7.7c.6 0 1.1.5 1.1 1.1v1.9c0 .1 0 .1.1.1h17c.6 0 1.1.5 1.1 1.1v17.9c-.1.6-.5 1.1-1.2 1.1zM7.1 9.4c-.1 0-.1 0 0 0L7 30.5c0 .1 0 .1.1.1H33c.1 0 .1 0 .1-.1V12.6c0-.1 0-.1-.1-.1H16c-.6 0-1.1-.5-1.1-1.1V9.5c0-.1 0-.1-.1-.1H7.1z"/><path d="M30.4 17.6H9.6v1h20.8v-1zm0 3.5H9.6v.9h20.8v-.9zm0 3.4H9.6v1h20.8v-1z" style="fill:#6e4bfc"/></symbol><symbol xml:space="preserve" id="tab-panel-group" style="enable-background:new 0 0 40 40" viewBox="0 0 40 40" xmlns="http://www.w3.org/2000/svg"><style>.nst0{fill:#6e4bfc}</style><path d="M21.8 11.6h-1c.1.1.2.2.2.3h1.9V8.5h-8v1.1h1v-.1h5.9v2.1z"/><path d="M29.7 11.9c0-.1.1-.3.1-.4V9.6c-.1-.6-.6-1.1-1.2-1.1H23c-.6 0-1.2.5-1.2 1.2v1.8c0 .1 0 .3.1.4h7.8zm-7-2.3c0-.1.1-.2.2-.2h5.6c.1 0 .2.1.2.2v1.8c0 .1-.1.2-.2.2h-5.6c-.1 0-.2-.1-.2-.2V9.6zm-7.9-1.1H7.1C6.4 8.5 6 9 6 9.6v2h1v-2c0-.1 0-.1.1-.1h7.7c.1 0 .1 0 .1.1v2h1s-.1 0-.1-.1V9.6c.1-.6-.4-1.1-1-1.1z"/><path d="M14.8 8.5H7.1C6.4 8.5 6 9 6 9.6v2h1v-2c0-.1 0-.1.1-.1h7.7c.1 0 .1 0 .1.1v2h1s-.1 0-.1-.1V9.6c.1-.6-.4-1.1-1-1.1zm15.6 9.2H9.6v1h20.8zm0 3.5H9.6v.9h20.8zm0 3.4H9.6v1h20.8z"/><path d="M32.9 11.6H15c0 .6.5 1 1.1 1h17c.1 0 .1 0 .1.1v17.9c0 .1 0 .1-.1.1h-26c-.1 0-.1 0-.1-.1v-19H6v19c0 .6.5 1.1 1.1 1.1H33c.6 0 1.1-.5 1.1-1.1V12.7c-.1-.6-.5-1.1-1.2-1.1z" class="nst0"/><path d="M14.6 12.5h-.5v-1h.5v1zm-1 0h-.5v-1h.5v1zm-1 0h-.5v-1h.5v1zm-1 0h-.5v-1h.5v1zm-.9 0h-.5v-1h.5v1zm-1 0h-.5v-1h.5v1zm-1 0h-.5v-1h.5v1zm-1 0h-.5v-1h.5v1z" class="nst0"/></symbol></svg>