<svg xmlns="http://www.w3.org/2000/svg"><symbol fill="currentcolor" id="accordion-arrow" viewBox="0 0 48 48"><path d="m24 30.8-12-12 2.15-2.15L24 26.5l9.85-9.85L36 18.8Z"/></symbol><symbol style="enable-background:new 0 0 25 24" id="accordion-group" viewBox="0 0 25 24"><style>.st1{fill:none;stroke:currentColor;stroke-miterlimit:10}.cls-1,.st0{fill:currentColor}</style><path d="M20.9 17.1v3.1H4.1v-3.1h16.8m1.2-1.2H2.9v5.5h19.3v-5.5h-.1zm-1.2-5.4v3.1H4.1v-3.1h16.8m1.2-1.2H2.9v5.5h19.3V9.3h-.1zm-1.2-5.5v3.1H4.1V3.8h16.8m1.2-1.2H2.9v5.5h19.3V2.6h-.1z" class="st0"/><path d="M19.1 4.3h.5v2h-.5z" class="st0"/><path d="M20.414 5.1v.5h-2v-.5zM19.1 11h.5v2h-.5z" class="st0"/><path d="M20.415 11.8v.5h-2v-.5zM19.1 17.6h.5v2h-.5z" class="st0"/><path d="M20.4 18.386v.5h-2v-.5z" class="st0"/></symbol><symbol id="accordion" viewBox="0 0 25 24"><path d="M20.9 4v9.7H4.1V4h16.8m1.3-1.2H2.9V15h19.3V2.8Zm-1.3 14.3v3.1H4.1v-3.1h16.8m1.2-1.2H2.9v5.5h19.3v-5.5Z" class="st0"/><path d="m19.824 4.588.353.353-1.414 1.414-.353-.353z" class="st0"/><path d="m18.763 4.617 1.414 1.414-.353.354L18.41 4.97zM19.1 17.6h.5v2h-.5z" class="st0"/><path d="M18.4 18.4h2v.5h-2z" class="st0"/></symbol><symbol fill="none" id="back-arrow" viewBox="0 0 7 12"><path d="M5.84 11.5.507 6.167 5.84.833" stroke="currentColor" stroke-linecap="round" stroke-linejoin="round"/></symbol><symbol style="enable-background:new 0 0 25 24" id="banner-zone" viewBox="0 0 25 24"><path d="M22.7 17.6H2.3v1h20.5v-1h-.1zm0 2.1H2.3v1h20.5v-1h-.1zm0-16.4H2.3v1h20.5v-1h-.1zm0 2.1H2.3v1h20.5v-1h-.1zm-1 3.2v6.9H3.3V8.6h18.4m1-1H2.3v8.9h20.5V7.6h-.1z" style="fill:currentColor"/><path d="m18.4 15.9 3.7-3.7m-19.4-.5L6.4 8m-2.9 7.9 8-7.9m-3 7.9 8-7.9m-2.7 7.9L21.7 8" style="fill:none;stroke:currentColor;stroke-miterlimit:10"/></symbol><symbol fill="currentcolor" id="break-image-out" viewBox="0 0 25 24"><path d="M18.1 22.4h-.5v-1h1v.5c0 .3-.2.5-.5.5zm-1.5 0h-1v-1h1v1zm-1.9 0h-1v-1h1v1zm-2 0h-1v-1h1v1zm-2 0h-1v-1h1v1zm-2 0h-1v-1h1v1zm-2 0h-1v-1h1v1zm-1.9 0h-1v-1h1v1zm-2 0h-.5c-.3 0-.5-.2-.5-.5v-.5h1v1zm0-2h-1v-1h1v1zm0-2h-1v-1h1v1zm0-1.9h-1v-1h1v1zm0-2h-1v-1h1v1zm0-2h-1v-1h1v1zm0-2h-1v-1h1v1zm0-2h-1v-1h1v1zm0-1.9h-1v-1h1v1zm0-2h-1v-1h1v1zm0-2h-1v-.5c0-.3.2-.5.5-.5h.5v1zm13.8 0h-1v-1h1v1zm-1.9 0h-1v-1h1v1zm-2 0h-1v-1h1v1zm-2 0h-1v-1h1v1zm-2 0h-1v-1h1v1zm-2 0h-1v-1h1v1zm-1.9 0h-1v-1h1v1zm13.8 0h-1v-1h.5c.3 0 .5.2.5.5v.5zm0 17.8h-1v-1h1v1zm0-15.8h-1v-1h1v1zm-1 12.8h1v1h-1zm0-1.9h1v1h-1zm0-2h1v1h-1z"/><path d="M17.6 11.5h1v1h-1z" opacity=".4"/><path d="M17.6 9.5h1v1h-1zm0-2h1v1h-1zm0-1.9h1v1h-1z"/><path d="M22 12.5h-5.8v-1H22l-2.7-2.7.7-.6 3.8 3.8-3.8 3.8-.7-.7 2.7-2.6z"/><path d="M22.2 14.9v2.8h-17V6.3h17v2.8l1 1V5.3h-19v13.4h19v-4.8z"/></symbol><symbol id="carousel-navigation-arrows" viewBox="0 0 25 24"><circle cx="6.6" cy="12" r="4.8" class="st1"/><path d="m7 14.8-2.7-2.7 2.8-2.8.7.7-2.1 2.1 2 2-.7.7z" class="st0"/><circle cx="18.4" cy="12" r="4.8" class="st1"/><path d="m18 9.2 2.7 2.7-2.8 2.8-.7-.7 2.1-2.1-2-2 .7-.7z" class="st0"/></symbol><symbol id="carousel-thumbnails" viewBox="0 0 25 24"><path d="M11.4 14.2H4V20h7.6v-5.8h-.1Zm9.4 0h-7.5V20h7.6v-5.8h-.1Zm.2-3.1H5.5V4H4v8.8h17v-1.7z" style="fill:currentColor"/></symbol><symbol style="enable-background:new 0 0 25 24" id="carousel-with-thumbnails" viewBox="0 0 25 24"><path d="M8.1 16.8H2.3v4.5h5.9v-4.5h-.1zm7.3 0H9.6v4.5h5.9v-4.5h-.1zm7.3 0h-5.9v4.5h5.9v-4.5zM21.5 4v10.4h-18V4h18m1.2-1.2H2.3v12.9h20.5V2.8h-.1z" style="fill:currentColor"/></symbol><symbol style="enable-background:new 0 0 25 24" id="carousel" viewBox="0 0 25 24"><path d="M6.9 17.8H2.8V6.2h4.1V5H1.5v14h5.4zM18.7 5v1.2h3.6v11.6h-3.6V19h4.9V5z" class="st0"/><path d="M17.7 3.6v16.9H7.3V3.6h10.4m1.2-1.3H6.1v19.4H19V2.3h-.1z" class="st0"/></symbol><symbol fill="none" id="chevron-left" viewBox="0 0 16 16"><path d="M9.656 13.496 4.323 8.163l5.333-5.334" stroke="currentColor" stroke-linecap="round" stroke-linejoin="round"/></symbol><symbol fill="none" id="chevron-right" viewBox="0 0 16 16"><path d="m5.656 2.828 5.334 5.333-5.334 5.334" stroke="currentColor" stroke-linecap="round" stroke-linejoin="round"/></symbol><symbol id="gallery-carousel-lightbox" viewBox="0 0 25 24"><path d="M2.3 2.8v18.5h20.5V2.8H2.3Zm18.5 14.4H4.2V6.7h16.7v10.5Z" class="st0"/><g id="GHCm3L.tif"><path d="M14.1 14.2h-3.4c-.3 0-.4-.3-.5-.5V10c.1-.1.3-.3.6-.3h3.3c.2 0 .4.2.4.4v3.5c0 .4-.3.6-.5.6Zm-1.6-.4h1.6s.1 0 .2-.1v-3.2c0-.1 0-.2-.1-.3H11c-.1 0-.2 0-.2.2v3.2s0 .1.1.2h1.6Z" class="st0"/><path d="M12.9 12.7c0-.1.1-.3.2-.4l.1-.1h.2c.1.3.3.6.4.8v.2s-.1.1-.2.1H11c-.1 0-.2-.2-.1-.3 0 0 0-.1.1-.3.3-.4.5-.9.8-1.3 0 0 .1-.1.2-.1h.1c.3.5.5.9.8 1.3Zm.4-1.9c.2 0 .4.2.4.4s-.2.4-.4.4-.4-.2-.4-.4.1-.4.4-.4Z" class="st0"/></g></symbol><symbol style="enable-background:new 0 0 25 24" id="gallery-carousel" viewBox="0 0 25 24"><g id="GHCm3L.tif"><path d="M15.1 15.5H9.8c-.4-.1-.7-.4-.8-.8V9.3c0-.1.1-.3.1-.4.2-.2.5-.4.9-.4h5.2c.3.1.6.3.7.6.1.1.1.2.1.4v5.2c-.1.4-.4.7-.8.8h-.1zm-2.6-.6h2.6c.1 0 .2-.1.3-.2V9.5c0-.1-.1-.2-.2-.3h-5.1c-.2 0-.3.1-.3.3v5.1c0 .1.1.2.2.3h2.5z" class="st0"/><path d="m13.2 13.1.3-.6c0-.1.1-.1.2-.2.1 0 .2 0 .3.1v.1c.2.4.5.8.7 1.2.1.1.1.2 0 .3 0 .1-.2.2-.3.2h-4.1c-.2 0-.3-.3-.2-.5.1-.1.1-.2.2-.4l1.2-2.1c.1-.1.2-.2.3-.2.1 0 .2.1.2.1v.1c.5.7.8 1.3 1.2 1.9-.1 0-.1 0 0 0zm.6-3c.3 0 .6.3.6.6 0 .4-.3.6-.6.6-.4 0-.6-.3-.6-.6-.1-.3.2-.6.6-.6z" class="st0"/></g><path d="M6.9 17.8H2.7V6.2h4.2V5H1.5v14h5.4zM18.6 5v1.2h3.7v11.6h-3.7V19h4.9V5z" class="st0"/><path d="M17.7 3.6v16.9H7.3V3.6h10.4m1.2-1.3H6.1v19.4H19V2.3h-.1z" class="st0"/></symbol><symbol style="enable-background:new 0 0 25 24" id="icon" viewBox="0 0 25 24"><path d="M12.5 17.7c-.8 0-1.5-.1-2.2-.4-.7-.4-1.3-.8-1.8-1.3s-.9-1.1-1.2-1.8c-.3-.7-.5-1.4-.5-2.2 0-.8.2-1.5.5-2.2.3-.7.7-1.3 1.2-1.8s1.1-.9 1.8-1.2c.7-.3 1.5-.4 2.2-.4.8 0 1.5.1 2.1.4s1.3.6 1.8 1.1c.5.5.9 1 1.2 1.6.3.6.4 1.3.4 2 0 1.1-.3 1.9-1 2.5-.7.6-1.5.9-2.4.9h-1.1c-.1 0-.1 0-.2.1v.2c0 .1.1.3.2.5s.2.5.2.7c0 .5-.1.8-.4 1.1 0 .1-.4.2-.8.2zm-3.1-5.1c.2 0 .5-.1.6-.2s.2-.4.2-.6c0-.2-.1-.5-.2-.6-.2-.2-.4-.2-.6-.2-.2 0-.5.1-.6.2-.2.2-.2.4-.2.6 0 .2.1.5.2.6.1.1.3.2.6.2zm1.7-2.3c.2 0 .5-.1.6-.2.2-.2.2-.4.2-.6s0-.5-.2-.7c-.2-.2-.4-.2-.6-.2s-.5.1-.6.2c-.2.2-.2.4-.2.6s.1.5.2.6c.1.2.3.3.6.3zm2.8 0c.2 0 .5-.1.6-.2.2-.2.2-.4.2-.6s0-.5-.2-.7c-.2-.2-.4-.2-.6-.2s-.5.1-.6.2c-.2.2-.2.4-.2.6s.1.5.2.6c.2.2.4.3.6.3zm1.7 2.3c.2 0 .5-.1.6-.2.2-.2.2-.4.2-.6 0-.2-.1-.5-.2-.6-.2-.2-.4-.2-.6-.2s-.5.1-.6.2c-.2.2-.2.4-.2.6 0 .2.1.5.2.6s.4.2.6.2zm-3.1 3.9c.1 0 .2 0 .2-.1s.1-.1.1-.2-.1-.3-.2-.5-.2-.5-.2-.8c0-.4.1-.7.4-1 .3-.2.6-.4 1-.4h1c.6 0 1.2-.2 1.6-.5.4-.4.7-.9.7-1.7 0-1.1-.4-2.1-1.3-2.9s-1.9-1.1-3.1-1.1c-1.3 0-2.4.4-3.3 1.3-.9.9-1.4 2-1.4 3.2 0 1.3.4 2.3 1.3 3.2.9 1.1 1.9 1.5 3.2 1.5z" class="st0"/><path d="M12.5 3c5 0 9 4 9 9s-4 9-9 9-9-4-9-9 4-9 9-9m0-1.2C6.8 1.8 2.3 6.3 2.3 12s4.6 10.2 10.2 10.2c5.7 0 10.2-4.6 10.2-10.2S18.2 1.8 12.5 1.8z" class="st0"/></symbol><symbol style="enable-background:new 0 0 25 24" id="information" viewBox="0 0 25 24"><path d="m11.1 12.2-.4.4c-.1.1-.3.1-.4.1-.1 0-.2-.3-.1-.4.1-.9 1.2-2.1 2.1-2.3.9-.2 1.7.4 1.7 1.4v4.1l.5-.5c.1-.1.3-.1.4-.1.1 0 .2.2.1.4-.1.9-1.2 2.1-2.1 2.3-.9.2-1.7-.4-1.7-1.3v-3.7c0-.1 0-.2-.1-.4zm1.1-2.9c-.8 0-1.4-.6-1.4-1.4 0-.8.6-1.5 1.4-1.5.8 0 1.4.7 1.4 1.4 0 .8-.6 1.5-1.4 1.5z" class="st0" id="CwryJI_00000129184639845813549310000007475274244211757752_"/><path d="M12.5 3c5 0 9 4 9 9s-4 9-9 9-9-4-9-9 4-9 9-9m0-1.2C6.8 1.8 2.3 6.3 2.3 12s4.6 10.2 10.2 10.2c5.7 0 10.2-4.6 10.2-10.2S18.2 1.8 12.5 1.8z" class="st0"/></symbol><symbol id="list-item" viewBox="0 0 25 24"><path d="M5.9 4.9h17v1.2h-17zm0 4.3h17v1.2h-17zm0 4.4h17v1.2h-17zm0 4.3h17v1.2h-17zM3.3 4.3c-.7 0-1.2.5-1.2 1.2s.5 1.2 1.2 1.2 1.2-.5 1.2-1.2-.6-1.2-1.2-1.2Z" style="fill:currentColor"/></symbol><symbol style="enable-background:new 0 0 25 24" id="list" viewBox="0 0 25 24"><path d="M5.9 4.9h17v1.2h-17zm0 4.3h17v1.2h-17zm0 4.4h17v1.2h-17zm0 4.3h17v1.2h-17zM3.3 4.3c-.7 0-1.2.5-1.2 1.2s.5 1.2 1.2 1.2 1.2-.5 1.2-1.2c-.1-.7-.6-1.2-1.2-1.2zm0 4.4c-.7 0-1.2.5-1.2 1.2S2.6 11 3.3 11s1.2-.5 1.2-1.2-.6-1.1-1.2-1.1zm0 4.3c-.7 0-1.2.5-1.2 1.2s.5 1.2 1.2 1.2 1.2-.5 1.2-1.2c-.1-.7-.6-1.2-1.2-1.2zm0 4.3c-.7 0-1.2.5-1.2 1.2s.5 1.2 1.2 1.2 1.2-.5 1.2-1.2c-.1-.6-.6-1.2-1.2-1.2z" style="fill:currentColor"/></symbol><symbol style="enable-background:new 0 0 40 40" id="logo-banner" viewBox="0 0 40 40"><path d="M4 22.3V12h6.6v10.3H4zm8.4 0V12h15.7v10.3H12.4zm17.4 0V12H36v10.3h-6.2z"/></symbol><symbol id="manual-post-select" viewBox="0 0 25 24"><path d="M16.2 18.5v2H5.8V3.6h10.4v4.3c.6.3.7.4 1.3.6V2.3H4.6v19.4h12.9v-5.8c-.5 1-.5 1.1-1.3 2.5Z" style="fill:currentColor"/><path d="m15.9 14 .8-1.7 2.3-.5-3.9-2L16 14Zm4.1 3.8L17.1 14l-1.6 3.6-2-9.8 8.9 4.4-3.9.8 2.8 3.8-1.3 1Z" style="fill:currentColor"/></symbol><symbol fill="currentcolor" id="media-and-text-heading-and-text" viewBox="0 0 25 24"><path d="M12.7 22.4H1.8V1.6h10.9v20.8zm-9.9-1h8.9V2.6H2.8v18.8zm20.442-11.203h-8v-1h8zm0 2.445h-8v-1h8zm0 2.447h-8v-1h8zm0 2.446h-8v-1h8zM15.2 4h8v3.7h-8zm0 15h8v1h-8z"/></symbol><symbol fill="currentcolor" id="media-and-text-heading-text-buttons" viewBox="0 0 25 24"><path d="M12.7 22.4H1.8V1.6h10.9v20.8zm-9.9-1h8.9V2.6H2.8v18.8zM23.242 9.819h-8v-1h8zm0 2.445h-8v-1h8zm0 2.446h-8v-1h8zM15.2 3.6h8v3.7h-8zm7.5 13.9v2.4h-7v-2.4h7m.5-.5h-8v3.4h8V17z"/><path d="M22 18.8h-1v-.2h1l-.5-.5.1-.1.7.7-.7.7-.1-.1.5-.5z"/></symbol><symbol fill="currentcolor" id="media-and-text-intro-heading-and-text" viewBox="0 0 25 24"><path d="M12.7 22.4H1.8V1.6h10.9v20.8zm-9.9-1h8.9V2.6H2.8v18.8zM19.648 4.808h-4.4v-.5h4.4zm3.594 9.893h-8v-1h8zm0-2.539h-8v-1h8zm0 5.085h-8v-1h8zM15.2 5.9h8v3.7h-8zm0 12.8h8v1h-8z"/></symbol><symbol fill="currentcolor" id="media-and-text-intro-heading-text-buttons" viewBox="0 0 25 24"><path d="M12.7 22.4H1.8V1.6h10.9v20.8zm-9.9-1h8.9V2.6H2.8v18.8zM19.648 3.261h-4.4v-.5h4.4zm3.594 9.993h-8v-1h8zm0-2.639h-8v-1h8zm0 5.085h-8v-1h8zM15.2 4.4h8v3.7h-8zm7.5 14v2.4h-7v-2.4h7m.5-.5h-8v3.4h8v-3.4z"/><path d="M22 19.6h-1v-.2h1l-.5-.4.1-.1.7.7-.7.7-.1-.1.5-.6z"/></symbol><symbol fill="currentcolor" id="media-and-text-just-text" viewBox="0 0 25 24"><path d="M12.7 22.4H1.8V1.6h10.9v20.8zm-9.9-1h8.9V2.6H2.8v18.8zM23.242 8.782h-8v-1h8zm0 2.445h-8v-1h8zm0 2.546h-8v-1h8zm0 2.446h-8v-1h8zM15.2 5.3h8v1h-8zm0 12.4h8v1h-8z"/></symbol><symbol style="enable-background:new 0 0 10.9 11" fill="currentColor" id="menu-close-icon" viewBox="0 0 10.9 11"><path d="M.6 11H.4c-.1 0-.1-.1-.2-.1-.2-.2-.2-.5 0-.7l4.6-4.7L.2.8C0 .6 0 .4.2.2s.5-.2.7 0l4.6 4.6L10.1.2c.2-.2.5-.2.7 0s.2.5 0 .7L6.2 5.4l4.6 4.6c.2.2.2.5 0 .7-.2.2-.5.2-.7 0L5.5 6.1l-.6.6-1.1 1.1-1.4 1.4-1.3 1.3-.2.2-.3.3z"/></symbol><symbol fill="currentcolor" id="menu-open-icon" viewBox="0 0 16 9.7"><path d="M0 0h16v1H0V0Zm0 4.3h16v1H0v-1Zm0 4.4h16v1H0v-1Z"/></symbol><symbol fill="none" id="minus" viewBox="0 0 16 16"><path fill="currentColor" d="M15 7.5v1H1v-1z"/></symbol><symbol id="nav-list" viewBox="0 0 25 24"><path d="M2.7 5.7h15v1.2h-15zm18 1.8-1.5-1.6.7-.7.8.9.9-.9.7.7-1.6 1.6zm-18 3.8h15v1.2h-15zm18 1.7-1.5-1.5.7-.8.8.9.9-.9.7.7-1.6 1.6zm-18 4.1h15v1.2h-15zm18 1.7-1.5-1.6.7-.7.8.9.9-.9.7.7-1.6 1.6z" style="fill:currentColor"/></symbol><symbol id="nav-menu-item" viewBox="0 0 25 24"><path d="m7.2 14.1 5.6-1.6 1.6-5.6-5.6 1.6-1.6 5.6Zm3.6-2.4c-.3 0-.6 0-.9-.3s-.3-.6-.3-.9 0-.6.3-.9c.2-.2.5-.3.9-.3s.6 0 .9.3c.2.2.3.5.3.9s0 .6-.3.9c-.2.2-.6.3-.9.3Z" class="st0"/><path d="M3.7 10.5c0-4 3.2-7.2 7.2-7.2s7.2 3.2 7.2 7.2 0 .8-.1 1.2c.3-.3.6-.6 1-.7v-.5c0-4.5-3.6-8.1-8.1-8.1S2.7 6 2.7 10.5s3.7 8.1 8.1 8.1h.9c0-.4.1-.7.3-1-.4 0-.8.1-1.3.1-4 0-7.2-3.2-7.2-7.2Z" class="st0"/><path d="M19.6 11.7c2.2-.2 3.5 2.3 2.2 4-.7.7-1.4 1.5-2.1 2.1s-1.9.8-2.8.3-.6-.4-.7-.6c-.2-.6.4-1.1.9-.8s.2.1.2.2c.5.4 1.1.3 1.6 0 .6-.6 1.3-1.2 1.9-1.9.8-.9 0-2.3-1.2-2s-1 .9-1.5 1.2-1.4-.3-.9-.9.7-.7 1-1 .9-.6 1.5-.6Z" class="st0"/><path d="M16.6 14.8c.7 0 1.5.2 2 .8s-.2 1.3-.8.9-.2-.1-.2-.2c-.5-.4-1.1-.3-1.6 0-.6.6-1.3 1.2-1.9 1.9-.8.9 0 2.3 1.2 2s1-.9 1.5-1.2 1.3.2.9.8c-.7.8-1.4 1.6-2.6 1.7-2.3.1-3.5-2.5-2-4.2s1.3-1.3 2-2c.4-.4.9-.6 1.5-.6Z" class="st0"/></symbol><symbol id="nav-sub-menu" viewBox="0 0 25 24"><path d="M2.9 2.9h15v1.2h-15zm3.5 7.3h12.9v1.2H6.4zm0 3h6.2v1.2H6.4zm0 3h10.2v1.2H6.4zM20.9 4.7l-1.5-1.6.7-.7.8.8.9-.8.7.7-1.6 1.6z" class="st0"/><path d="M20.9 7.8v12.1H4.1V7.8h16.8m1.3-1.3H2.9v14.6h19.3V6.5ZM2.9 2.9h15v1.2h-15z" class="st0"/><path d="M6.4 10.2h12.9v1.2H6.4zm0 3h6.2v1.2H6.4zm0 3h10.2v1.2H6.4zM20.9 4.7l-1.5-1.6.7-.7.8.8.9-.8.7.7-1.6 1.6z" class="st0"/></symbol><symbol style="enable-background:new 0 0 25 24" id="navigation" viewBox="0 0 25 24"><path d="m8 16.5 7-2 2-7-7 2-2 7zm4.5-3c-.4 0-.8-.1-1.1-.4s-.4-.7-.4-1.1.1-.8.4-1.1c.3-.3.6-.4 1.1-.4s.8.1 1.1.4c.3.3.4.6.4 1.1s-.1.8-.4 1.1c-.3.3-.7.4-1.1.4z" style="fill:currentColor"/><path d="M12.5 3c5 0 9 4 9 9s-4 9-9 9-9-4-9-9 4-9 9-9m0-1.2C6.8 1.8 2.3 6.3 2.3 12s4.6 10.2 10.2 10.2c5.7 0 10.2-4.6 10.2-10.2S18.2 1.8 12.5 1.8z" style="fill:currentColor"/></symbol><symbol fill="none" id="plus" viewBox="0 0 16 16"><path fill="currentColor" d="M15 7.5v1H1v-1z"/><path fill="currentColor" d="M7.5 1h1v14h-1z"/></symbol><symbol id="tab-list" viewBox="0 0 25 24"><path d="M14.31 8.89H9.48c-.66 0-1.21.66-1.21 1.54v3.62h6.15c.66 0 1.21-.66 1.21-1.54v-2.09c-.11-.88-.66-1.54-1.32-1.54Zm.22 3.62v1.1h-1.98v-.66H9.26v-2.53c0-.33.11-.44.22-.44h4.94s.22.11.22.44v2.09h-.11Z" class="cls-1"/><path d="M20.79 9.99s.11.22.11.44v2.53h-5.16v-2.53c0-.22.11-.44.11-.44h4.94m0-1.1h-4.94c-.66 0-1.21.66-1.21 1.54v3.62H22v-3.62c0-.88-.55-1.54-1.21-1.54Z" class="cls-1"/><path d="M2.45 15.55v-6h5.82v4.5h14.49v1.5h.99v-2.6H9.26c0-.11.11-.22.11-.44V9.55c0-.66-.44-1.1-.99-1.1H2.23c-.55 0-.99.44-.99 1.1v6h1.21Z" class="cls-1"/></symbol><symbol id="tab-panel-group" viewBox="0 0 25 24"><path d="M6.1 11.4h12.5v1.3H6.1zm0 3.6h12.5v1.3H6.1zm8-12.4H9.7c-.6 0-1.1.6-1.1 1.4v3.3h5.6c.6 0 1.1-.6 1.1-1.4V4c-.1-.8-.6-1.4-1.2-1.4Zm.2 3.3v1h-1.8v-.6h-3V4c0-.3.1-.4.2-.4h4.5s.2 0 .2.4v1.9Z" class="st0"/><path d="M20 3.6s.1.2.1.4v2.3h-4.7V4c0-.2.1-.4.1-.4H20m0-1h-4.5c-.6 0-1.1.6-1.1 1.4v3.3h6.7V4c0-.8-.5-1.4-1.1-1.4Z" class="st0"/><path d="M8.7 2.2H3.1c-.5 0-.9.4-.9 1v18.1h20.5v-15H9.5s.1-.2.1-.4V3.2c0-.6-.4-1-.9-1Zm-.1 1v4.1h13.2v13H3.3V3.2h5.3Z" class="st0"/></symbol><symbol id="tab-panel" viewBox="0 0 25 24"><path d="M14.1 2.6H9.7c-.6 0-1.1.6-1.1 1.4v3.3h5.6c.6 0 1.1-.6 1.1-1.4V4c-.1-.8-.6-1.4-1.2-1.4Z" class="st0"/><path d="M20 2.6h-4.5c-.6 0-1.1.6-1.1 1.4v3.3h6.7V4c0-.8-.5-1.4-1.1-1.4Z" class="st0"/><path d="M8.7 2.2H3.1c-.5 0-.9.4-.9 1v18.1h20.5v-15H9.5s.1-.2.1-.4V3.2c0-.6-.4-1-.9-1Zm-.1 1v4.1h13.2v13H3.3V3.2h5.3Z" class="st0"/><path d="M6.1 11.4h12.5v1.3H6.1zm0 3.6h12.5v1.3H6.1z" class="st0"/></symbol><symbol style="enable-background:new 0 0 25 24" id="tabs" viewBox="0 0 25 24"><path d="M14.1 2.6H9.7c-.6 0-1.1.6-1.1 1.4v3.3h5.6c.6 0 1.1-.6 1.1-1.4V4c-.1-.8-.6-1.4-1.2-1.4zm.2 3.3v1h-1.8v-.6h-3V4c0-.3.1-.4.2-.4h4.5s.2.1.2.4v1.9z" class="st0"/><path d="M20 3.6s.1.2.1.4v2.3h-4.7V4c0-.2.1-.4.1-.4H20m0-1h-4.5c-.6 0-1.1.6-1.1 1.4v3.3h6.7V4c0-.8-.5-1.4-1.1-1.4z" class="st0"/><path d="M8.7 2.2H3.1c-.5 0-.9.4-.9 1v18.1h20.5v-15H9.5c0-.1.1-.2.1-.4V3.2c0-.6-.4-1-.9-1zm-.1 1v4.1h13.2v13H3.3V3.2h5.3z" class="st0"/></symbol><symbol fill="none" id="vertical-tabs" viewBox="0 0 25 26"><path fill="currentColor" d="M3.1 14.6v-4.4c0-.6.6-1.1 1.4-1.1h3.3v5.6c0 .6-.6 1.1-1.4 1.1H4.5c-.8-.1-1.4-.6-1.4-1.2Zm3.3.2h1V13h-.6v-3H4.5c-.3 0-.4.1-.4.2v4.5s.1.2.4.2h1.9v-.1Z"/><path fill="currentColor" d="M4.1 20.5s.2.1.4.1h2.3v-4.7H4.5c-.2 0-.4.1-.4.1v4.5Zm-1 0V16c0-.6.6-1.1 1.4-1.1h3.3v6.7H4.5c-.8 0-1.4-.5-1.4-1.1Z"/><path fill="currentColor" d="M2.7 9.2V3.6c0-.5.4-.9 1-.9h18.1v20.5h-15V10c-.1 0-.2.1-.4.1H3.7c-.6 0-1-.4-1-.9Zm1-.1h4.1v13.2h13V3.8H3.7v5.3Z"/></symbol></svg>