<svg xmlns="http://www.w3.org/2000/svg"><symbol id="accordion-arrow" fill="currentcolor" viewBox="0 0 48 48"><path d="m24 30.8-12-12 2.15-2.15L24 26.5l9.85-9.85L36 18.8Z"/></symbol><symbol id="accordion-group" viewBox="0 0 25 24"><style>.st0,.st1{stroke-miterlimit:10}.st0{stroke:#000;stroke-width:.4px}.st1{fill:none;stroke:currentColor}.cls-1,.st0{fill:currentColor}</style><path d="M20.9 17.1v3.1H4.1v-3.1h16.8m1.2-1.2H2.9v5.5h19.3v-5.5zm-1.2-5.4v3.1H4.1v-3.1h16.8m1.2-1.2H2.9v5.5h19.3V9.3zm-1.2-5.5v3.1H4.1V3.8h16.8m1.2-1.2H2.9v5.5h19.3V2.6z" class="st0"/><path d="M19.1 4.3h.5v2h-.5z" class="st0"/><path d="M20.414 5.1v.5h-2v-.5zM19.1 11h.5v2h-.5z" class="st0"/><path d="M20.415 11.8v.5h-2v-.5zM19.1 17.6h.5v2h-.5z" class="st0"/><path d="M20.4 18.386v.5h-2v-.5z" class="st0"/></symbol><symbol id="accordion" viewBox="0 0 25 24"><path d="M20.9 4v9.7H4.1V4h16.8m1.3-1.2H2.9V15h19.3zm-1.3 14.3v3.1H4.1v-3.1h16.8m1.2-1.2H2.9v5.5h19.3v-5.5Z" class="st0"/><path d="m19.824 4.588.353.353-1.414 1.414-.353-.353z" class="st0"/><path d="m18.763 4.617 1.414 1.414-.353.354L18.41 4.97zM19.1 17.6h.5v2h-.5z" class="st0"/><path d="M18.4 18.4h2v.5h-2z" class="st0"/></symbol><symbol id="back-arrow" fill="none" viewBox="0 0 7 12"><path stroke="currentColor" stroke-linecap="round" stroke-linejoin="round" d="M5.84 11.5.507 6.167 5.84.833"/></symbol><symbol id="banner-zone" viewBox="0 0 25 24"><path d="M22.7 17.6H2.3v1h20.5v-1zm0 2.1H2.3v1h20.5v-1zm0-16.4H2.3v1h20.5v-1zm0 2.1H2.3v1h20.5v-1zm-1 3.2v6.9H3.3V8.6h18.4m1-1H2.3v8.9h20.5V7.6z" class="st0"/><path d="m18.4 15.9 3.7-3.7m-19.4-.5L6.4 8m-2.9 7.9 8-7.9m-3 7.9 8-7.9m-2.7 7.9L21.7 8" style="fill:none;stroke:currentColor;stroke-miterlimit:10"/></symbol><symbol id="break-image-out" fill="currentcolor" viewBox="0 0 25 24"><path d="M18.1 22.4h-.5v-1h1v.5c0 .3-.2.5-.5.5m-1.5 0h-1v-1h1zm-1.9 0h-1v-1h1zm-2 0h-1v-1h1zm-2 0h-1v-1h1zm-2 0h-1v-1h1zm-2 0h-1v-1h1zm-1.9 0h-1v-1h1zm-2 0h-.5c-.3 0-.5-.2-.5-.5v-.5h1zm0-2h-1v-1h1zm0-2h-1v-1h1zm0-1.9h-1v-1h1zm0-2h-1v-1h1zm0-2h-1v-1h1zm0-2h-1v-1h1zm0-2h-1v-1h1zm0-1.9h-1v-1h1zm0-2h-1v-1h1zm0-2h-1v-.5c0-.3.2-.5.5-.5h.5zm13.8 0h-1v-1h1zm-1.9 0h-1v-1h1zm-2 0h-1v-1h1zm-2 0h-1v-1h1zm-2 0h-1v-1h1zm-2 0h-1v-1h1zm-1.9 0h-1v-1h1zm13.8 0h-1v-1h.5c.3 0 .5.2.5.5zm0 17.8h-1v-1h1zm0-15.8h-1v-1h1zm-1 12.8h1v1h-1zm0-1.9h1v1h-1zm0-2h1v1h-1z"/><path d="M17.6 11.5h1v1h-1z" opacity=".4"/><path d="M17.6 9.5h1v1h-1zm0-2h1v1h-1zm0-1.9h1v1h-1z"/><path d="M22 12.5h-5.8v-1H22l-2.7-2.7.7-.6 3.8 3.8-3.8 3.8-.7-.7z"/><path d="M22.2 14.9v2.8h-17V6.3h17v2.8l1 1V5.3h-19v13.4h19v-4.8z"/></symbol><symbol id="button-with-icon" viewBox="0 0 25 24"><path d="M16.176 11.907v2.4h-7v-2.4z"/><path d="M3.652 9.072H21.47v5.736H3.652z" class="st0"/><path d="M19.383 12.125H17.53v-.37h1.853l-.926-.927.185-.186 1.297 1.297-1.297 1.298-.185-.186zM6.595 12.918a1 1 0 0 1-.39-.07c-.124-.072-.23-.143-.32-.231s-.159-.195-.212-.32c-.053-.124-.089-.248-.089-.39s.036-.266.089-.39.124-.23.213-.32.195-.159.319-.212.266-.07.39-.07c.142 0 .266.017.373.07s.23.107.319.195.16.178.213.284.07.23.07.355c0 .195-.053.337-.177.443s-.266.16-.425.16h-.196q-.017 0-.035.017v.036c0 .018.018.053.035.089s.036.088.036.124c0 .088-.018.142-.071.195 0 .018-.07.035-.142.035m-.55-.904c.036 0 .089-.018.107-.036s.035-.07.035-.106a.2.2 0 0 0-.035-.107c-.036-.035-.071-.035-.107-.035a.2.2 0 0 0-.106.035c-.036.036-.036.071-.036.107a.2.2 0 0 0 .036.106c.018.018.053.036.106.036m.302-.408a.2.2 0 0 0 .106-.036c.036-.035.036-.07.036-.106s0-.089-.036-.124-.07-.036-.106-.036-.089.018-.107.036c-.035.035-.035.07-.035.106s.018.089.035.107q.027.053.107.053m.496 0a.2.2 0 0 0 .107-.036c.035-.035.035-.07.035-.106s0-.089-.035-.124-.071-.036-.107-.036-.088.018-.106.036c-.035.035-.035.07-.035.106s.017.089.035.107q.053.053.106.053m.302.408a.2.2 0 0 0 .106-.036c.036-.035.036-.07.036-.106a.2.2 0 0 0-.036-.107c-.035-.035-.07-.035-.106-.035s-.089.018-.106.035c-.036.036-.036.071-.036.107 0 .035.018.089.036.106s.07.036.106.036m-.562.763c.019 0 .038 0 .038-.019s.018-.018.018-.037-.018-.056-.037-.093-.038-.092-.038-.148c0-.074.02-.13.075-.185.057-.037.113-.074.188-.074h.188a.52.52 0 0 0 .3-.092.41.41 0 0 0 .131-.315c0-.203-.075-.389-.244-.537s-.356-.203-.581-.203a.84.84 0 0 0-.62.24.82.82 0 0 0-.262.593c0 .24.075.425.244.592a.71.71 0 0 0 .6.278"/><path d="M6.595 10.311c.887 0 1.596.71 1.596 1.596s-.71 1.597-1.596 1.597S5 12.794 5 11.907s.71-1.596 1.596-1.596m0-.213c-1.01 0-1.809.798-1.809 1.81s.816 1.808 1.81 1.808c1.01 0 1.808-.815 1.808-1.809s-.798-1.809-1.809-1.809"/></symbol><symbol id="carousel-dots" viewBox="0 0 25 24"><path d="M18.7 12H3.2V4.9H1.7v8.8h17z" class="st0"/><path d="M6.3 12h15.5V4.9h1.5v8.8h-17zm-.5 7.1c-1 0-1.8-.8-1.8-1.8s.8-1.8 1.8-1.8 1.8.8 1.8 1.8-.8 1.8-1.8 1.8Zm4.5 0c-1 0-1.8-.8-1.8-1.8s.8-1.8 1.8-1.8 1.8.8 1.8 1.8-.8 1.8-1.8 1.8Zm0-3.1c-.7 0-1.3.6-1.3 1.3s.6 1.3 1.3 1.3 1.3-.6 1.3-1.3S11 16 10.3 16Zm4.4 3.1c-1 0-1.8-.8-1.8-1.8s.8-1.8 1.8-1.8 1.8.8 1.8 1.8-.8 1.8-1.8 1.8Zm0-3.1c-.7 0-1.3.6-1.3 1.3s.6 1.3 1.3 1.3S16 18 16 17.3s-.6-1.3-1.3-1.3Zm4.5 3.1c-1 0-1.8-.8-1.8-1.8s.8-1.8 1.8-1.8 1.8.8 1.8 1.8-.8 1.8-1.8 1.8Zm0-3.1c-.7 0-1.3.6-1.3 1.3s.6 1.3 1.3 1.3 1.3-.6 1.3-1.3-.6-1.3-1.3-1.3Z" class="st0"/></symbol><symbol id="carousel-navigation-arrows" viewBox="0 0 25 24"><circle cx="6.6" cy="12" r="4.8" class="st1"/><path d="m7 14.8-2.7-2.7 2.8-2.8.7.7-2.1 2.1 2 2z" class="st0"/><circle cx="18.4" cy="12" r="4.8" class="st1"/><path d="m18 9.2 2.7 2.7-2.8 2.8-.7-.7 2.1-2.1-2-2z" class="st0"/></symbol><symbol id="carousel-slide-count" viewBox="0 0 25 24"><path d="M18.75 11.27H3.25V4.48H1.7v8.38h17.05z" class="cls-1"/><path d="M6.25 11.27h15.5V4.48h1.55v8.38H6.25zm1.62 5.2v-.65h1.19v2.98H8.3v-2.33h-.42Zm5.39-1.55-1.15 4.64h-.71l1.15-4.64zm2.03 1.07c.19-.16.44-.24.77-.24.21 0 .4.04.55.11s.27.17.35.29.12.26.12.41c0 .18-.05.33-.14.44s-.2.19-.33.23v.02c.16.05.29.14.39.26.09.12.14.27.14.46q0 .255-.12.45a.77.77 0 0 1-.36.3c-.16.07-.34.11-.56.11-.34 0-.62-.08-.82-.24s-.31-.4-.32-.73h.71c0 .12.04.21.11.28s.17.1.3.1c.11 0 .2-.03.26-.09s.09-.14.09-.24c0-.13-.04-.23-.13-.28s-.23-.09-.42-.09h-.14v-.57h.14c.15 0 .26-.02.35-.07s.14-.13.14-.25c0-.1-.03-.17-.09-.23s-.14-.08-.24-.08q-.165 0-.24.09a.43.43 0 0 0-.09.23h-.72c.01-.29.11-.52.3-.67" class="cls-1"/></symbol><symbol id="carousel-thumbnails" viewBox="0 0 25 24"><path d="M11.4 14.2H4V20h7.6v-5.8h-.1Zm9.4 0h-7.5V20h7.6v-5.8zm.2-3.1H5.5V4H4v8.8h17z" class="st0"/></symbol><symbol id="carousel-with-thumbnails" viewBox="0 0 25 24"><path d="M8.1 16.8H2.3v4.5h5.9v-4.5zm7.3 0H9.6v4.5h5.9v-4.5zm7.3 0h-5.9v4.5h5.9zM21.5 4v10.4h-18V4h18m1.2-1.2H2.3v12.9h20.5V2.8z" class="st0"/></symbol><symbol id="carousel" viewBox="0 0 25 24"><path d="M6.9 17.8H2.8V6.2h4.1V5H1.5v14h5.4zM18.7 5v1.2h3.6v11.6h-3.6V19h4.9V5z" class="st0"/><path d="M17.7 3.6v16.9H7.3V3.6h10.4m1.2-1.3H6.1v19.4H19V2.3z" class="st0"/></symbol><symbol id="chevron-down" fill="none" viewBox="0 0 16 16"><path stroke="currentColor" stroke-linecap="round" stroke-linejoin="round" d="m13.5 6.16-5.333 5.333L2.833 6.16"/></symbol><symbol id="chevron-left" fill="none" viewBox="0 0 16 16"><path stroke="currentColor" stroke-linecap="round" stroke-linejoin="round" d="M9.656 13.496 4.323 8.163l5.333-5.334"/></symbol><symbol id="chevron-right" fill="none" viewBox="0 0 16 16"><path stroke="currentColor" stroke-linecap="round" stroke-linejoin="round" d="m5.656 2.828 5.334 5.333-5.334 5.334"/></symbol><symbol id="chevron-up" fill="none" viewBox="0 0 16 16"><path stroke="currentColor" stroke-linecap="round" stroke-linejoin="round" d="m2.832 10 5.333-5.333L13.5 10"/></symbol><symbol id="cta" viewBox="0 0 25 24"><path id="cIlMzR" d="m15.8 11.8 7.8 3s.1.2 0 .3c0 .3-1.2 1.2-1.4 1.5 0 0 1.2 1.1 1.3 1.3s.1.2 0 .3c0 .4-1.4 1.4-1.7 1.8-.2.1-.3 0-.5 0-.4-.3-.9-1-1.3-1.3 0 0-1.1 1.2-1.3 1.3s-.4.1-.5-.1l-2.9-7.5c-.1-.3 0-.5.3-.5Zm6.9 3.4-6.2-2.3 2.3 6.2h.1c.3-.2 1-1.2 1.3-1.2s.2 0 .3.1c.4.3.8.9 1.2 1.2h.1c.3-.2.6-.7 1-1 0-.1-1.4-1.2-1.4-1.5v-.1c0-.2 1.3-1.3 1.3-1.4Zm-8.8-4.4c-.1-.2-.5-.4-.5-.7s.3-.4.5-.3 1.2 1.2 1.2 1.3c0 .3-.2.5-.4.4s-.6-.5-.8-.7Zm2.7-2.2c.2 0 .4.2.4.3v1.6c0 .4-.7.4-.7-.2V8.8c0-.3.2-.3.3-.3Zm-4.2 4h1.7c.3 0 .3.6-.1.7s-1.4 0-1.6 0c-.4 0-.3-.6 0-.7Zm6.4-1.3c-.4.4-.8 0-.7-.4s1.1-1.1 1.2-1.2c.3-.1.7.2.5.5zM15 15.1l-.8.8c-.2.2-.3.3-.5.2s-.3-.3-.1-.5l1.1-1.1c.5-.2.7.3.4.7Z" class="st0"/><path d="M6.9 16.6C5.4 16.6 4 16 3 15c-1.1-1.1-1.7-2.5-1.6-4.1C1.4 7.8 4 5.3 7 5.3h9.9c3 0 5.5 2.5 5.6 5.5v1.1c0 .3-.3.4-.5.4s-.3 0-.4-.2c-.1-.1-.1-.3-.1-.4v-1c-.1-2.5-2.1-4.4-4.6-4.4h-10c-2.5 0-4.6 2-4.6 4.6 0 1.3.5 2.4 1.3 3.3.9.9 2 1.3 3.2 1.3h5.1c.3 0 .5.2.5.5s-.2.5-.5.5H6.8Z" class="st0"/><path d="M16.8 5.4c3 0 5.5 2.4 5.6 5.4v1.1c0 .2-.2.4-.5.4s-.5-.3-.5-.6v-1c-.1-2.5-2.2-4.4-4.6-4.4H6.9c-2.5 0-4.6 2-4.6 4.6s2 4.7 4.6 4.7H12c.3 0 .5.2.5.5s-.2.5-.5.5H6.9c-3.1 0-5.5-2.5-5.5-5.7 0-3.1 2.5-5.6 5.6-5.6h9.9m-.1 0H6.9c-3.1 0-5.7 2.5-5.7 5.7 0 1.6.6 3 1.7 4.1s2.5 1.7 3.9 1.7h5.1c.3 0 .6-.3.6-.6s-.3-.6-.6-.6H6.8c-1.2 0-2.3-.5-3.1-1.3-.9-.9-1.3-2-1.3-3.3 0-2.5 2.1-4.5 4.5-4.5h9.9c2.4 0 4.4 1.9 4.5 4.3v1c0 .2 0 .3.1.5.1.1.3.2.4.2.3 0 .5-.2.6-.5v-1.1c0-3.1-2.6-5.5-5.7-5.5Z" class="st0"/></symbol><symbol id="gallery-carousel-lightbox" viewBox="0 0 25 24"><path d="M2.3 2.8v18.5h20.5V2.8zm18.5 14.4H4.2V6.7h16.7v10.5Z" class="st0"/><g id="GHCm3L.tif"><path d="M14.1 14.2h-3.4c-.3 0-.4-.3-.5-.5V10c.1-.1.3-.3.6-.3h3.3c.2 0 .4.2.4.4v3.5c0 .4-.3.6-.5.6Zm-1.6-.4h1.6s.1 0 .2-.1v-3.2c0-.1 0-.2-.1-.3H11c-.1 0-.2 0-.2.2v3.2s0 .1.1.2z" class="st0"/><path d="M12.9 12.7c0-.1.1-.3.2-.4l.1-.1h.2c.1.3.3.6.4.8v.2s-.1.1-.2.1H11c-.1 0-.2-.2-.1-.3 0 0 0-.1.1-.3.3-.4.5-.9.8-1.3 0 0 .1-.1.2-.1h.1c.3.5.5.9.8 1.3Zm.4-1.9c.2 0 .4.2.4.4s-.2.4-.4.4-.4-.2-.4-.4.1-.4.4-.4Z" class="st0"/></g></symbol><symbol id="gallery-carousel" viewBox="0 0 25 24"><g id="GHCm3L.tif"><path d="M15.1 15.5H9.8c-.4-.1-.7-.4-.8-.8V9.3c0-.1.1-.3.1-.4.2-.2.5-.4.9-.4h5.2c.3.1.6.3.7.6.1.1.1.2.1.4v5.2c-.1.4-.4.7-.8.8zm-2.6-.6h2.6c.1 0 .2-.1.3-.2V9.5c0-.1-.1-.2-.2-.3h-5.1q-.3 0-.3.3v5.1c0 .1.1.2.2.3z" class="st0"/><path d="m13.2 13.1.3-.6c0-.1.1-.1.2-.2.1 0 .2 0 .3.1v.1c.2.4.5.8.7 1.2q.15.15 0 .3c0 .1-.2.2-.3.2h-4.1c-.2 0-.3-.3-.2-.5.1-.1.1-.2.2-.4l1.2-2.1c.1-.1.2-.2.3-.2s.2.1.2.1v.1c.5.7.8 1.3 1.2 1.9q-.15 0 0 0zm.6-3c.3 0 .6.3.6.6 0 .4-.3.6-.6.6-.4 0-.6-.3-.6-.6-.1-.3.2-.6.6-.6z" class="st0"/></g><path d="M6.9 17.8H2.7V6.2h4.2V5H1.5v14h5.4zM18.6 5v1.2h3.7v11.6h-3.7V19h4.9V5z" class="st0"/><path d="M17.7 3.6v16.9H7.3V3.6h10.4m1.2-1.3H6.1v19.4H19V2.3z" class="st0"/></symbol><symbol id="heading-with-icon" viewBox="0 0 25 24"><path d="M22.617 12.246v1.733H2.532v-1.733zm.4-.4H2.132v2.533h20.885zM18.586 15.87v1.732H6.564V15.87zm.4-.4H6.164v2.532h12.822zM12.355 9.242c-.257 0-.48-.033-.705-.129-.225-.128-.417-.256-.577-.416s-.289-.353-.385-.577c-.096-.225-.16-.449-.16-.705s.064-.481.16-.706.225-.416.385-.577.352-.288.577-.384.48-.128.705-.128c.256 0 .48.032.673.128s.417.192.577.352.288.32.385.513c.096.193.128.417.128.641 0 .353-.096.61-.32.802s-.482.288-.77.288h-.353q-.032 0-.064.032v.064c0 .032.032.096.064.16s.065.16.065.225c0 .16-.033.256-.129.352 0 .032-.128.065-.256.065m-.994-1.635c.064 0 .16-.032.193-.064s.064-.128.064-.193a.34.34 0 0 0-.064-.192c-.064-.064-.129-.064-.193-.064a.34.34 0 0 0-.192.064c-.064.064-.064.128-.064.192 0 .065.032.16.064.193.032.032.096.064.192.064m.545-.737c.064 0 .16-.032.192-.064.065-.065.065-.129.065-.193s0-.16-.065-.224-.128-.064-.192-.064-.16.032-.192.064c-.064.064-.064.128-.064.192s.032.16.064.193q.048.096.192.096m.898 0c.064 0 .16-.032.192-.064.064-.065.064-.129.064-.193s0-.16-.064-.224-.128-.064-.192-.064-.16.032-.193.064c-.064.064-.064.128-.064.192s.032.16.064.193q.097.096.193.096m.545.737c.064 0 .16-.032.192-.064.064-.064.064-.128.064-.193a.34.34 0 0 0-.064-.192c-.064-.064-.128-.064-.192-.064s-.16.032-.193.064c-.064.064-.064.128-.064.192 0 .065.032.16.064.193s.128.064.193.064m-1.016 1.378c.034 0 .068 0 .068-.033s.034-.034.034-.067-.034-.1-.068-.167-.068-.167-.068-.268c0-.134.034-.234.136-.334.102-.067.203-.134.34-.134h.338a.95.95 0 0 0 .543-.167.75.75 0 0 0 .237-.569c0-.368-.136-.702-.44-.97s-.645-.368-1.052-.368c-.44 0-.814.134-1.119.435s-.474.669-.474 1.07c0 .435.135.77.44 1.07.306.369.645.502 1.085.502"/><path d="M12.355 4.53c1.602 0 2.885 1.282 2.885 2.885s-1.283 2.884-2.885 2.884S9.47 9.017 9.47 7.415s1.282-2.885 2.885-2.885m0-.385c-1.827 0-3.27 1.443-3.27 3.27s1.475 3.269 3.27 3.269c1.827 0 3.27-1.475 3.27-3.27s-1.443-3.269-3.27-3.269"/></symbol><symbol id="icon" viewBox="0 0 25 24"><path d="M12.5 17.7c-.8 0-1.5-.1-2.2-.4-.7-.4-1.3-.8-1.8-1.3s-.9-1.1-1.2-1.8-.5-1.4-.5-2.2.2-1.5.5-2.2Q7.75 8.75 8.5 8c.75-.75 1.1-.9 1.8-1.2s1.5-.4 2.2-.4c.8 0 1.5.1 2.1.4s1.3.6 1.8 1.1.9 1 1.2 1.6.4 1.3.4 2c0 1.1-.3 1.9-1 2.5q-1.05.9-2.4.9h-1.1c-.1 0-.1 0-.2.1v.2c0 .1.1.3.2.5s.2.5.2.7c0 .5-.1.8-.4 1.1 0 .1-.4.2-.8.2zm-3.1-5.1c.2 0 .5-.1.6-.2s.2-.4.2-.6-.1-.5-.2-.6c-.2-.2-.4-.2-.6-.2s-.5.1-.6.2c-.2.2-.2.4-.2.6s.1.5.2.6.3.2.6.2zm1.7-2.3c.2 0 .5-.1.6-.2.2-.2.2-.4.2-.6s0-.5-.2-.7-.4-.2-.6-.2-.5.1-.6.2c-.2.2-.2.4-.2.6s.1.5.2.6q.15.3.6.3zm2.8 0c.2 0 .5-.1.6-.2.2-.2.2-.4.2-.6s0-.5-.2-.7-.4-.2-.6-.2-.5.1-.6.2c-.2.2-.2.4-.2.6s.1.5.2.6q.3.3.6.3zm1.7 2.3c.2 0 .5-.1.6-.2.2-.2.2-.4.2-.6s-.1-.5-.2-.6c-.2-.2-.4-.2-.6-.2s-.5.1-.6.2c-.2.2-.2.4-.2.6s.1.5.2.6.4.2.6.2zm-3.1 3.9c.1 0 .2 0 .2-.1s.1-.1.1-.2-.1-.3-.2-.5-.2-.5-.2-.8c0-.4.1-.7.4-1 .3-.2.6-.4 1-.4h1c.6 0 1.2-.2 1.6-.5.4-.4.7-.9.7-1.7 0-1.1-.4-2.1-1.3-2.9s-1.9-1.1-3.1-1.1c-1.3 0-2.4.4-3.3 1.3S8 10.6 8 11.8c0 1.3.4 2.3 1.3 3.2.9 1.1 1.9 1.5 3.2 1.5z" class="st0"/><path d="M12.5 3c5 0 9 4 9 9s-4 9-9 9-9-4-9-9 4-9 9-9m0-1.2C6.8 1.8 2.3 6.3 2.3 12s4.6 10.2 10.2 10.2c5.7 0 10.2-4.6 10.2-10.2S18.2 1.8 12.5 1.8z" class="st0"/></symbol><symbol id="information" viewBox="0 0 25 24"><path id="CwryJI_00000129184639845813549310000007475274244211757752_" d="m11.1 12.2-.4.4c-.1.1-.3.1-.4.1s-.2-.3-.1-.4c.1-.9 1.2-2.1 2.1-2.3s1.7.4 1.7 1.4v4.1l.5-.5c.1-.1.3-.1.4-.1s.2.2.1.4c-.1.9-1.2 2.1-2.1 2.3s-1.7-.4-1.7-1.3v-3.7c0-.1 0-.2-.1-.4zm1.1-2.9c-.8 0-1.4-.6-1.4-1.4s.6-1.5 1.4-1.5 1.4.7 1.4 1.4c0 .8-.6 1.5-1.4 1.5z" class="st0"/><path d="M12.5 3c5 0 9 4 9 9s-4 9-9 9-9-4-9-9 4-9 9-9m0-1.2C6.8 1.8 2.3 6.3 2.3 12s4.6 10.2 10.2 10.2c5.7 0 10.2-4.6 10.2-10.2S18.2 1.8 12.5 1.8z" class="st0"/></symbol><symbol id="lightbox" fill="none" viewBox="0 0 24 24"><path stroke="currentColor" stroke-dasharray="1 1" stroke-miterlimit="1.624" d="M1 1h22v22H1z"/><path stroke="currentColor" d="m15.354 6.354 2.121 2.121M17.475 6.354l-2.121 2.121M4.5 4.5h15v15h-15z"/></symbol><symbol id="list-item" viewBox="0 0 25 24"><path d="M5.9 4.9h17v1.2h-17zm0 4.3h17v1.2h-17zm0 4.4h17v1.2h-17zm0 4.3h17v1.2h-17zM3.3 4.3c-.7 0-1.2.5-1.2 1.2s.5 1.2 1.2 1.2 1.2-.5 1.2-1.2-.6-1.2-1.2-1.2Z" class="st0"/></symbol><symbol id="list" viewBox="0 0 25 24"><path d="M5.9 4.9h17v1.2h-17zm0 4.3h17v1.2h-17zm0 4.4h17v1.2h-17zm0 4.3h17v1.2h-17zM3.3 4.3c-.7 0-1.2.5-1.2 1.2s.5 1.2 1.2 1.2 1.2-.5 1.2-1.2c-.1-.7-.6-1.2-1.2-1.2zm0 4.4c-.7 0-1.2.5-1.2 1.2S2.6 11 3.3 11s1.2-.5 1.2-1.2-.6-1.1-1.2-1.1zm0 4.3c-.7 0-1.2.5-1.2 1.2s.5 1.2 1.2 1.2 1.2-.5 1.2-1.2c-.1-.7-.6-1.2-1.2-1.2zm0 4.3c-.7 0-1.2.5-1.2 1.2s.5 1.2 1.2 1.2 1.2-.5 1.2-1.2c-.1-.6-.6-1.2-1.2-1.2z" class="st0"/></symbol><symbol id="logo-banner" viewBox="0 0 40 40"><path d="M4 22.3V12h6.6v10.3zm8.4 0V12h15.7v10.3zm17.4 0V12H36v10.3z"/></symbol><symbol id="manual-post-select" viewBox="0 0 25 24"><path d="M16.2 18.5v2H5.8V3.6h10.4v4.3c.6.3.7.4 1.3.6V2.3H4.6v19.4h12.9v-5.8c-.5 1-.5 1.1-1.3 2.5Z" style="fill:currentColor"/><path d="m15.9 14 .8-1.7 2.3-.5-3.9-2L16 14Zm4.1 3.8L17.1 14l-1.6 3.6-2-9.8 8.9 4.4-3.9.8 2.8 3.8z" style="fill:currentColor"/></symbol><symbol id="media-and-text-heading-and-text" fill="currentcolor" viewBox="0 0 25 24"><path d="M12.7 22.4H1.8V1.6h10.9zm-9.9-1h8.9V2.6H2.8zm20.442-11.203h-8v-1h8zm0 2.445h-8v-1h8zm0 2.447h-8v-1h8zm0 2.446h-8v-1h8zM15.2 4h8v3.7h-8zm0 15h8v1h-8z"/></symbol><symbol id="media-and-text-heading-text-buttons" fill="currentcolor" viewBox="0 0 25 24"><path d="M12.7 22.4H1.8V1.6h10.9zm-9.9-1h8.9V2.6H2.8zM23.242 9.819h-8v-1h8zm0 2.445h-8v-1h8zm0 2.446h-8v-1h8zM15.2 3.6h8v3.7h-8zm7.5 13.9v2.4h-7v-2.4zm.5-.5h-8v3.4h8z"/><path d="M22 18.8h-1v-.2h1l-.5-.5.1-.1.7.7-.7.7-.1-.1z"/></symbol><symbol id="media-and-text-intro-heading-and-text" fill="currentcolor" viewBox="0 0 25 24"><path d="M12.7 22.4H1.8V1.6h10.9zm-9.9-1h8.9V2.6H2.8zM19.648 4.808h-4.4v-.5h4.4zm3.594 9.893h-8v-1h8zm0-2.539h-8v-1h8zm0 5.085h-8v-1h8zM15.2 5.9h8v3.7h-8zm0 12.8h8v1h-8z"/></symbol><symbol id="media-and-text-intro-heading-text-buttons" fill="currentcolor" viewBox="0 0 25 24"><path d="M12.7 22.4H1.8V1.6h10.9zm-9.9-1h8.9V2.6H2.8zM19.648 3.261h-4.4v-.5h4.4zm3.594 9.993h-8v-1h8zm0-2.639h-8v-1h8zm0 5.085h-8v-1h8zM15.2 4.4h8v3.7h-8zm7.5 14v2.4h-7v-2.4zm.5-.5h-8v3.4h8z"/><path d="M22 19.6h-1v-.2h1l-.5-.4.1-.1.7.7-.7.7-.1-.1z"/></symbol><symbol id="media-and-text-just-text" fill="currentcolor" viewBox="0 0 25 24"><path d="M12.7 22.4H1.8V1.6h10.9zm-9.9-1h8.9V2.6H2.8zM23.242 8.782h-8v-1h8zm0 2.445h-8v-1h8zm0 2.546h-8v-1h8zm0 2.446h-8v-1h8zM15.2 5.3h8v1h-8zm0 12.4h8v1h-8z"/></symbol><symbol id="menu-close-icon" fill="currentColor" viewBox="0 0 10.9 11"><path d="M.6 11H.4c-.1 0-.1-.1-.2-.1-.2-.2-.2-.5 0-.7l4.6-4.7L.2.8Q-.1.5.2.2c.3-.3.5-.2.7 0l4.6 4.6L10.1.2c.2-.2.5-.2.7 0s.2.5 0 .7L6.2 5.4l4.6 4.6c.2.2.2.5 0 .7s-.5.2-.7 0L5.5 6.1l-.6.6-1.1 1.1-1.4 1.4-1.3 1.3-.2.2z"/></symbol><symbol id="menu-open-icon" fill="currentcolor" viewBox="0 0 16 9.7"><path d="M0 0h16v1H0zm0 4.3h16v1H0zm0 4.4h16v1H0z"/></symbol><symbol id="minus" fill="none" viewBox="0 0 16 16"><path fill="currentColor" d="M15 7.5v1H1v-1z"/></symbol><symbol id="nav-list" viewBox="0 0 25 24"><path d="M2.7 5.7h15v1.2h-15zm18 1.8-1.5-1.6.7-.7.8.9.9-.9.7.7zm-18 3.8h15v1.2h-15zm18 1.7-1.5-1.5.7-.8.8.9.9-.9.7.7zm-18 4.1h15v1.2h-15zm18 1.7-1.5-1.6.7-.7.8.9.9-.9.7.7z" class="st0"/></symbol><symbol id="nav-menu-item" viewBox="0 0 25 24"><path d="m7.2 14.1 5.6-1.6 1.6-5.6-5.6 1.6zm3.6-2.4c-.3 0-.6 0-.9-.3s-.3-.6-.3-.9 0-.6.3-.9q.3-.3.9-.3c.6 0 .6 0 .9.3q.3.3.3.9c0 .6 0 .6-.3.9-.2.2-.6.3-.9.3Z" class="st0"/><path d="M3.7 10.5c0-4 3.2-7.2 7.2-7.2s7.2 3.2 7.2 7.2 0 .8-.1 1.2c.3-.3.6-.6 1-.7v-.5c0-4.5-3.6-8.1-8.1-8.1S2.7 6 2.7 10.5s3.7 8.1 8.1 8.1h.9c0-.4.1-.7.3-1-.4 0-.8.1-1.3.1-4 0-7.2-3.2-7.2-7.2Z" class="st0"/><path d="M19.6 11.7c2.2-.2 3.5 2.3 2.2 4-.7.7-1.4 1.5-2.1 2.1s-1.9.8-2.8.3-.6-.4-.7-.6c-.2-.6.4-1.1.9-.8s.2.1.2.2c.5.4 1.1.3 1.6 0 .6-.6 1.3-1.2 1.9-1.9.8-.9 0-2.3-1.2-2s-1 .9-1.5 1.2-1.4-.3-.9-.9.7-.7 1-1 .9-.6 1.5-.6Z" class="st0"/><path d="M16.6 14.8c.7 0 1.5.2 2 .8s-.2 1.3-.8.9-.2-.1-.2-.2c-.5-.4-1.1-.3-1.6 0-.6.6-1.3 1.2-1.9 1.9-.8.9 0 2.3 1.2 2s1-.9 1.5-1.2 1.3.2.9.8c-.7.8-1.4 1.6-2.6 1.7-2.3.1-3.5-2.5-2-4.2s1.3-1.3 2-2q.6-.6 1.5-.6Z" class="st0"/></symbol><symbol id="nav-sub-menu" viewBox="0 0 25 24"><path d="M2.9 2.9h15v1.2h-15zm3.5 7.3h12.9v1.2H6.4zm0 3h6.2v1.2H6.4zm0 3h10.2v1.2H6.4zM20.9 4.7l-1.5-1.6.7-.7.8.8.9-.8.7.7z" class="st0"/><path d="M20.9 7.8v12.1H4.1V7.8h16.8m1.3-1.3H2.9v14.6h19.3zM2.9 2.9h15v1.2h-15z" class="st0"/><path d="M6.4 10.2h12.9v1.2H6.4zm0 3h6.2v1.2H6.4zm0 3h10.2v1.2H6.4zM20.9 4.7l-1.5-1.6.7-.7.8.8.9-.8.7.7z" class="st0"/></symbol><symbol id="navigation" viewBox="0 0 25 24"><path d="m8 16.5 7-2 2-7-7 2zm4.5-3c-.4 0-.8-.1-1.1-.4s-.4-.7-.4-1.1.1-.8.4-1.1.6-.4 1.1-.4.8.1 1.1.4.4.6.4 1.1-.1.8-.4 1.1-.7.4-1.1.4" style="fill:currentColor"/><path d="M12.5 3c5 0 9 4 9 9s-4 9-9 9-9-4-9-9 4-9 9-9m0-1.2C6.8 1.8 2.3 6.3 2.3 12s4.6 10.2 10.2 10.2c5.7 0 10.2-4.6 10.2-10.2S18.2 1.8 12.5 1.8" style="fill:currentColor"/></symbol><symbol id="numbered-columns" viewBox="0 0 25 24"><path d="M2.4 9.4h8.8v1.2H2.4zm0 3.5h8.8v1.2H2.4zm0 3.5h8.8v1.2H2.4zm0 3.6h8.8v1.2H2.4zM13.9 9.4h8.8v1.2h-8.8zm0 3.5h8.8v1.2h-8.8zm0 3.5h8.8v1.2h-8.8zm0 3.6h8.8v1.2h-8.8zM2.6 3.7v-.9h1.5v3.9h-1V3.6h-.5ZM14.3 6c.4-.3.6-.5.8-.7s.4-.4.5-.6.2-.4.2-.6 0-.3-.1-.3c0 0-.2-.1-.3-.1s-.2 0-.3.2c0 .1-.1.2-.1.4h-.9c0-.3 0-.6.2-.8.1-.2.3-.4.5-.5s.4-.1.7-.1c.4 0 .7.1 1 .3q.3.3.3.9c0 .6-.1.7-.4 1.1l-1 1h1.4v.7h-2.7v-.7c.1 0 .2-.1.2-.1Z" class="st0"/></symbol><symbol id="plus" fill="none" viewBox="0 0 16 16"><path fill="currentColor" d="M15 7.5v1H1v-1z"/><path fill="currentColor" d="M7.5 1h1v14h-1z"/></symbol><symbol id="section-with-title" viewBox="0 0 25 24"><path d="M2.7 3.1h15v1.2h-15zm3.5 7.3h12.9v1.2H6.2zm0 3.1h12.9v1.2H6.2zm0 3h10.2v1.2H6.2z" class="st0"/><path d="M20.9 8v12.1H4.1V8h16.8m1.3-1.2H2.8v14.6h19.3V6.8ZM2.7 3.1h15v1.2h-15z" class="st0"/><path d="M6.2 10.4h12.9v1.2H6.2zm0 6.1h10.2v1.2H6.2z" class="st0"/></symbol><symbol id="tab-list" viewBox="0 0 25 24"><path d="M14.31 8.89H9.48c-.66 0-1.21.66-1.21 1.54v3.62h6.15c.66 0 1.21-.66 1.21-1.54v-2.09c-.11-.88-.66-1.54-1.32-1.54Zm.22 3.62v1.1h-1.98v-.66H9.26v-2.53c0-.33.11-.44.22-.44h4.94s.22.11.22.44v2.09z" class="cls-1"/><path d="M20.79 9.99s.11.22.11.44v2.53h-5.16v-2.53c0-.22.11-.44.11-.44zm0-1.1h-4.94c-.66 0-1.21.66-1.21 1.54v3.62H22v-3.62c0-.88-.55-1.54-1.21-1.54" class="cls-1"/><path d="M2.45 15.55v-6h5.82v4.5h14.49v1.5h.99v-2.6H9.26c0-.11.11-.22.11-.44V9.55c0-.66-.44-1.1-.99-1.1H2.23c-.55 0-.99.44-.99 1.1v6z" class="cls-1"/></symbol><symbol id="tab-panel-group" viewBox="0 0 25 24"><path d="M6.1 11.4h12.5v1.3H6.1zm0 3.6h12.5v1.3H6.1zm8-12.4H9.7c-.6 0-1.1.6-1.1 1.4v3.3h5.6c.6 0 1.1-.6 1.1-1.4V4c-.1-.8-.6-1.4-1.2-1.4Zm.2 3.3v1h-1.8v-.6h-3V4c0-.3.1-.4.2-.4h4.5s.2 0 .2.4v1.9Z" class="st0"/><path d="M20 3.6s.1.2.1.4v2.3h-4.7V4c0-.2.1-.4.1-.4H20m0-1h-4.5c-.6 0-1.1.6-1.1 1.4v3.3h6.7V4c0-.8-.5-1.4-1.1-1.4Z" class="st0"/><path d="M8.7 2.2H3.1c-.5 0-.9.4-.9 1v18.1h20.5v-15H9.5s.1-.2.1-.4V3.2c0-.6-.4-1-.9-1Zm-.1 1v4.1h13.2v13H3.3V3.2z" class="st0"/></symbol><symbol id="tab-panel" viewBox="0 0 25 24"><path d="M14.1 2.6H9.7c-.6 0-1.1.6-1.1 1.4v3.3h5.6c.6 0 1.1-.6 1.1-1.4V4c-.1-.8-.6-1.4-1.2-1.4Z" class="st0"/><path d="M20 2.6h-4.5c-.6 0-1.1.6-1.1 1.4v3.3h6.7V4c0-.8-.5-1.4-1.1-1.4Z" class="st0"/><path d="M8.7 2.2H3.1c-.5 0-.9.4-.9 1v18.1h20.5v-15H9.5s.1-.2.1-.4V3.2c0-.6-.4-1-.9-1Zm-.1 1v4.1h13.2v13H3.3V3.2z" class="st0"/><path d="M6.1 11.4h12.5v1.3H6.1zm0 3.6h12.5v1.3H6.1z" class="st0"/></symbol><symbol id="tabs" viewBox="0 0 25 24"><path d="M14.1 2.6H9.7c-.6 0-1.1.6-1.1 1.4v3.3h5.6c.6 0 1.1-.6 1.1-1.4V4c-.1-.8-.6-1.4-1.2-1.4zm.2 3.3v1h-1.8v-.6h-3V4c0-.3.1-.4.2-.4h4.5s.2.1.2.4v1.9z" class="st0"/><path d="M20 3.6s.1.2.1.4v2.3h-4.7V4c0-.2.1-.4.1-.4H20m0-1h-4.5c-.6 0-1.1.6-1.1 1.4v3.3h6.7V4c0-.8-.5-1.4-1.1-1.4z" class="st0"/><path d="M8.7 2.2H3.1c-.5 0-.9.4-.9 1v18.1h20.5v-15H9.5c0-.1.1-.2.1-.4V3.2c0-.6-.4-1-.9-1zm-.1 1v4.1h13.2v13H3.3V3.2z" class="st0"/></symbol><symbol id="vertical-tabs" fill="none" viewBox="0 0 25 26"><path fill="currentColor" d="M3.1 14.6v-4.4c0-.6.6-1.1 1.4-1.1h3.3v5.6c0 .6-.6 1.1-1.4 1.1H4.5c-.8-.1-1.4-.6-1.4-1.2m3.3.2h1V13h-.6v-3H4.5c-.3 0-.4.1-.4.2v4.5s.1.2.4.2h1.9z"/><path fill="currentColor" d="M4.1 20.5s.2.1.4.1h2.3v-4.7H4.5c-.2 0-.4.1-.4.1zm-1 0V16c0-.6.6-1.1 1.4-1.1h3.3v6.7H4.5c-.8 0-1.4-.5-1.4-1.1"/><path fill="currentColor" d="M2.7 9.2V3.6c0-.5.4-.9 1-.9h18.1v20.5h-15V10c-.1 0-.2.1-.4.1H3.7c-.6 0-1-.4-1-.9m1-.1h4.1v13.2h13V3.8H3.7z"/></symbol></svg>