<?xml version="1.0" encoding="utf-8"?><svg xmlns="http://www.w3.org/2000/svg" xmlns:xlink="http://www.w3.org/1999/xlink"><symbol viewBox="0 0 48 48" id="accordion-arrow" xmlns="http://www.w3.org/2000/svg"><path d="m24 30.8-12-12 2.15-2.15L24 26.5l9.85-9.85L36 18.8Z"/></symbol><symbol xml:space="preserve" id="accordion-group" style="enable-background:new 0 0 40 40" viewBox="0 0 40 40" xmlns="http://www.w3.org/2000/svg"><style>.bst0{fill:#6e4bfc}</style><path d="M33.1 16.4c.2 0 .4.2.4.4v6.6c0 .2-.2.4-.4.4H6.9c-.2 0-.4-.2-.4-.4v-6.6c0-.2.2-.4.4-.4h26.2m0-.7H6.9c-.6 0-1.1.5-1.1 1.1v6.6c0 .6.5 1.1 1.1 1.1h26.2c.6 0 1.1-.5 1.1-1.1v-6.6c-.1-.6-.5-1.1-1.1-1.1z"/><path d="M30 21.2c-.1 0-.2 0-.3-.1l-1.4-1.5c-.1-.1-.1-.4 0-.5.1-.1.4-.1.5 0l1.1 1.3 1.1-1.3c.1-.1.3-.2.5 0 .1.1.2.3 0 .5l-1.4 1.5c.1.1 0 .1-.1.1zM8.6 19.6h17.3v.9H8.6z" class="bst0"/><path d="M33.1 6.7c.2 0 .4.2.4.4v6.6c0 .2-.2.4-.4.4H6.9c-.2 0-.4-.2-.4-.4V7c0-.2.2-.4.4-.4h26.2m0-.6H6.9c-.6 0-1 .5-1 1v6.6c0 .6.5 1.1 1.1 1.1h26.2c.6 0 1.1-.5 1.1-1.1V7c-.2-.5-.6-1-1.2-1z"/><path d="M30 11.5c-.1 0-.2 0-.3-.1l-1.4-1.5c-.1-.1-.1-.4 0-.5.1-.1.4-.1.5 0l1.1 1.3L31 9.4c.1-.1.3-.2.5 0 .1.1.2.3 0 .5l-1.4 1.5c.1 0 0 .1-.1.1zM8.6 9.8h17.3v.9H8.6z" class="bst0"/><path d="M33.1 26c.2 0 .4.2.4.4V33c0 .2-.2.4-.4.4H6.9c-.2 0-.4-.2-.4-.4v-6.6c0-.2.2-.4.4-.4h26.2m0-.7H6.9c-.6 0-1.1.5-1.1 1.1V33c0 .6.5 1.1 1.1 1.1h26.2c.6 0 1.1-.5 1.1-1.1v-6.6c-.1-.7-.5-1.1-1.1-1.1z"/><path d="M30 30.8c-.1 0-.2 0-.3-.1l-1.4-1.5c-.1-.1-.1-.4 0-.5.1-.1.4-.1.5 0l1.1 1.3 1.1-1.3c.1-.1.3-.2.5 0 .1.1.2.3 0 .5l-1.4 1.5c.1 0 0 .1-.1.1zM8.6 29.1h17.3v.9H8.6z" class="bst0"/></symbol><symbol xml:space="preserve" style="enable-background:new 0 0 40 40" viewBox="0 0 40 40" id="accordion-single" xmlns="http://www.w3.org/2000/svg"><path d="M33.1 6.7c.1 0 .3.1.3.3v26c0 .1-.1.3-.3.3H6.9c-.1 0-.3-.1-.3-.3V7c0-.1.1-.3.3-.3h26.2m0-.7H6.9c-.6 0-1 .5-1 1v26c0 .6.5 1 1 1h26.3c.6 0 1-.5 1-1V7c-.1-.6-.5-1-1.1-1z"/><path d="M29.8 9.2c.1 0 .2 0 .3.1l1.4 1.5c.1.1.1.4 0 .5-.1.1-.4.1-.5 0L29.9 10l-1.1 1.3c-.1.1-.3.2-.5 0-.1-.1-.2-.3 0-.5l1.4-1.5c-.1 0 0-.1.1-.1zm-21.3.6h17.3v.9H8.5z" style="fill:#6e4bfc"/><path d="M31.5 15.3h-23v.9h23v-.9zm0 3.4h-23v1h23v-1zm0 6.9h-23v1h23v-1zm0 3.5h-23v.9h23v-.9zm0-6.9h-23v.9h23v-.9z"/></symbol><symbol xml:space="preserve" style="enable-background:new 0 0 40 40" viewBox="0 0 40 40" id="manual-post-select" xmlns="http://www.w3.org/2000/svg"><path d="M33.1 6.7c.1 0 .3.1.3.3v26c0 .1-.1.3-.3.3H6.9c-.1 0-.3-.1-.3-.3V7c0-.1.1-.3.3-.3h26.2m0-.7H6.9c-.6 0-1 .5-1 1v26c0 .6.5 1 1 1h26.3c.6 0 1-.5 1-1V7c-.1-.6-.5-1-1.1-1z"/><path d="M6.3 17.2h27.4v.8H6.3z"/><path d="M8.5 21.6h23.1v.9H8.5zm0 3.5h23.1v.9H8.5zm0 3.4h23.1v.9H8.5z" style="fill:#6e4bfc"/></symbol><symbol xml:space="preserve" style="enable-background:new 0 0 10.9 11" viewBox="0 0 10.9 11" fill="currentColor" id="menu-close-icon" xmlns="http://www.w3.org/2000/svg"><path d="M.6 11H.4c-.1 0-.1-.1-.2-.1-.2-.2-.2-.5 0-.7l4.6-4.7L.2.8C0 .6 0 .4.2.2s.5-.2.7 0l4.6 4.6L10.1.2c.2-.2.5-.2.7 0s.2.5 0 .7L6.2 5.4l4.6 4.6c.2.2.2.5 0 .7-.2.2-.5.2-.7 0L5.5 6.1l-.6.6-1.1 1.1-1.4 1.4-1.3 1.3-.2.2-.3.3z"/></symbol><symbol viewBox="0 0 16 16" fill="none" id="minus" xmlns="http://www.w3.org/2000/svg"><path fill="currentColor" d="M15 7.5v1H1v-1z"/></symbol><symbol xml:space="preserve" id="play-button" style="enable-background:new 0 0 40 40" viewBox="0 0 40 40" xmlns="http://www.w3.org/2000/svg"><style>.gst0{fill:#6e4bfc}</style><path d="M3.6 8.6v22.8h32.8V8.6H3.6zM31 26.8H9.1V13.3H31v13.5z"/><path d="M31.2 27.3H8.8V12.8h22.3v14.5zm-21.4-1h20.3V13.8H9.8v12.5z" class="gst0"/><g id="g_x38_HPWnq_00000086652635372659176950000013747684707033987993_"><path d="M20 16.7c1.8 0 3.3 1.5 3.3 3.3 0 1.7-1.4 3.3-3.4 3.2-1.7-.1-3.2-1.5-3.2-3.3.1-1.7 1.5-3.2 3.3-3.2zm0 6.1c1.5 0 2.8-1.2 2.8-2.7 0-1.6-1.3-2.9-2.8-2.9-1.5 0-2.8 1.2-2.8 2.8 0 1.5 1.2 2.8 2.8 2.8z" class="gst0"/><path d="M19.2 21.3v-2.6c.8.4 1.5.9 2.3 1.3-.8.4-1.5.9-2.3 1.3z" class="gst0"/></g></symbol><symbol viewBox="0 0 16 16" fill="none" id="plus" xmlns="http://www.w3.org/2000/svg"><path fill="currentColor" d="M15 7.5v1H1v-1z"/><path fill="currentColor" d="M7.5 1h1v14h-1z"/></symbol></svg>